<svg xmlns="http://www.w3.org/2000/svg" width="2804" height="2632"><g transform="translate(-764 -122)"><path d="M764 2238c-.092-705-.18-1411-.28-2116 935-.054 1869-.11 2804-.16.038 706 .075 1411 .11 2117l-1399 515c-468-172-937-344-1405-516z" fill="#b10f24"/><path stroke="#000" d="M865 679h2600v371H865z"/><rect x="764" y="1175.015" width="2803.776" height="383.969" ry="0" fill="#fff" stroke="#000"/><path stroke="#000" stroke-width=".977" d="M765.572 1172.522h2825.497v33.253H765.572z"/><path d="M642.636 1364.986v-164.25h3023v327.492h-3023zm57.437 115.882v-43.33h-14.107v-230.756H649.69v317.415h50.383zm57.437-115.882v-158.204h-36.276v230.756h-14.107v85.652h50.383zm57.437 115.882v-43.33H800.84v-230.756h-36.276v317.415h50.383zm57.437 0v-43.33h-14.107v-230.756h-22.169v230.756h-14.107v85.652h50.383zm57.437-115.882v-158.204h-36.276v230.756h-14.107v85.652h50.383zm57.437 115.882v-43.33h-14.107v-230.756h-36.276v317.415h50.383zm57.437 0v-43.33h-14.107v-230.756h-22.169v230.756h-14.107v85.652h50.383zm57.437 0v-43.33h-14.107v-230.756h-22.169v230.756h-14.107v85.652h50.383zm57.437-115.882v-158.204h-36.276v230.756h-14.107v85.652h50.383zm57.437 115.882v-43.33H1202.9v-230.756h-36.276v317.415h50.383zm57.437 0v-43.33h-14.107v-230.756h-22.169v230.756h-14.107v85.652h50.383zm57.437-115.882v-158.204h-36.276v230.756h-14.107v85.652h50.383zm57.437 115.882v-43.33h-14.107v-230.756h-36.276v317.415h50.383zm57.437 0v-43.33h-14.107v-230.756h-22.169v230.756h-14.107v85.652h50.383zm57.437 0v-43.33h-14.107v-230.756h-22.169v230.756h-14.107v85.652h50.383zm57.437-115.882v-158.204h-36.276v230.756h-14.107v85.652h50.383zm57.437 115.882v-43.33h-14.107v-230.756h-36.276v317.415h50.383zm57.437 0v-43.33h-14.107v-230.756h-22.169v230.756h-14.107v85.652h50.383zm57.437-115.882v-158.204h-36.276v230.756h-14.107v85.652h50.383zm57.437 115.882v-43.33h-14.107v-230.756h-36.276v317.415h50.383zm57.437 0v-43.33h-14.107v-230.756h-22.169v230.756h-14.107v85.652h50.383zm57.437 0v-43.33h-14.107v-230.756h-22.169v230.756h-14.107v85.652h50.383zm57.437-115.882v-158.204h-36.276v230.756h-14.107v85.652h50.383zm57.437 115.882v-43.33h-14.107v-230.756h-36.276v317.415h50.383zm57.437 0v-43.33h-14.107v-230.756h-22.169v230.756h-14.107v85.652h50.383zm57.437-115.882v-158.204h-36.276v230.756h-14.107v85.652h50.383zm57.437 115.882v-43.33h-14.107v-230.756h-36.276v317.415h50.383zm57.437 0v-43.33h-14.107v-230.756h-22.169v230.756h-14.107v85.652h50.383zm57.437 0v-43.33h-14.107v-230.756h-22.169v230.756h-14.107v85.652h50.383zm57.437-115.882v-158.204h-36.276v230.756h-14.107v85.652h50.383zm57.437 115.882v-43.33h-14.107v-230.756H2372.8v317.415h50.383zm57.437 0v-43.33h-14.107v-230.756h-22.169v230.756h-14.107v85.652h50.383zm57.437-115.882v-158.204h-36.276v230.756h-14.107v85.652h50.383zm57.437 115.882v-43.33h-14.107v-230.756h-36.276v317.415h50.383zm57.437 0v-43.33h-14.107v-230.756h-22.169v230.756h-14.107v85.652h50.383zm57.437 0v-43.33h-14.107v-230.756h-22.169v230.756h-14.107v85.652h50.383zm57.437-115.882v-158.204h-36.276v230.756h-14.107v85.652h50.383zm57.437 115.882v-43.33h-14.107v-230.756h-36.276v317.415h50.383zm57.437 0v-43.33h-14.107v-230.756h-22.169v230.756h-14.107v85.652h50.383zm57.437-115.882v-158.204h-36.276v230.756h-14.107v85.652h50.383zm57.437 115.882v-43.33h-14.107v-230.756h-36.276v317.415h50.383zm57.437 0v-43.33h-14.107v-230.756h-22.169v230.756h-14.107v85.652h50.383zm57.437 0v-43.33h-14.107v-230.756h-22.169v230.756h-14.107v85.652h50.383zm57.437-115.882v-158.204h-36.276v230.756h-14.107v85.652h50.383zm57.437 115.882v-43.33h-14.107v-230.756h-36.276v317.415h50.383zm57.437 0v-43.33h-14.107v-230.756h-22.169v230.756h-14.107v85.652h50.383zm57.437-115.882v-158.204H3305.9v230.756h-14.107v85.652h50.383zm57.437 115.882v-43.33h-14.107v-230.756h-36.276v317.415h50.383zm57.437 0v-43.33h-14.107v-230.756h-22.169v230.756h-14.107v85.652h50.383zm57.437 0v-43.33h-14.107v-230.756h-22.169v230.756h-14.107v85.652h50.383zm57.437-115.882v-158.204h-36.276v230.756h-14.107v85.652h50.383zm57.437 0v-158.204h-50.383v317.415h50.383z"/><path d="M559.933 1560.185c-.503-.428-.913-8.01-.913-16.766v-15.834h3031.843v33.532H2076.34c-832.71 0-1515.456-.354-1515.456-.783z" stroke="#000" stroke-width="1.304"/></g><g letter-spacing="0" word-spacing="0" font-size="467" font-family="Limelight"><path d="M143.791 902.16q-4.332-.456-6.613-3.876-2.28-3.42-1.824-7.525 1.14-7.069 4.333-12.997 3.192-5.93 4.56-8.893 1.596-2.965 3.193-6.613l8.665-20.067 93.719-280.701 100.788 194.735 97.824-194.735L565.414 898.74H442.963l-56.55-174.213L298.85 906.95l-92.123-164.18-31.924 99.648q-7.525 16.646-10.717 28.276-3.193 11.63-5.245 18.014-4.56 14.366-15.05 13.453zm524.463-44.009q-41.729 0-57.007-.684l-6.613 15.734q-2.964 6.613-5.472 13.91-5.245 14.137-14.594 14.137-4.333 0-7.069-2.736-2.736-2.736-2.736-5.7 0-5.017 4.332-11.174 6.841-9.577 13.454-25.083-19.61-1.824-19.61-11.401t11.173-9.577q6.84 0 15.962 2.28l113.785-276.37L869.83 898.74H751.028l-18.926-40.589zm-49.71-18.47q21.89 1.824 39.22 1.824h66.813L667.57 718.6zm298.032-263.6h116.294v322.66H916.576zm213.205 290.051l.685 22.803q0 5.929-3.193 9.121-3.192 3.192-7.753 3.192-4.332 0-7.297-2.964-2.964-2.964-2.964-6.385 0-3.648.456-6.613.684-3.192 1.14-7.068 1.14-6.613 1.14-33.064V561.488l247.866 196.56V622.142q0-15.506-.912-22.119-1.14-10.717-1.14-15.05 0-11.4 9.805-11.4 3.876 0 7.297 2.735 3.648 2.737 3.648 7.981v7.981l-.912 33.064v285.947l-247.866-194.508zm525.147 11.858q12.086 0 12.086 10.26 0 4.105-5.017 7.298-4.788 3.192-17.33 3.192H1459.51V576.081h116.294v307.61h42.641q14.366 0 24.627-2.737 10.49-2.964 11.857-2.964zm112.418-19.839q-41.73 0-57.007-.684l-6.613 15.734q-2.964 6.613-5.473 13.91-5.244 14.137-14.593 14.137-4.333 0-7.07-2.736-2.735-2.736-2.735-5.7 0-5.017 4.332-11.174 6.841-9.577 13.454-25.083-19.61-1.824-19.61-11.401t11.173-9.577q6.84 0 15.962 2.28l113.785-276.37 155.971 337.253H1850.12l-18.927-40.589zm-49.71-18.47q21.89 1.824 39.22 1.824h66.813L1766.662 718.6zm322.43 26.451l.685 22.803q0 5.929-3.193 9.121-3.192 3.192-7.753 3.192-4.332 0-7.297-2.964-2.964-2.964-2.964-6.385 0-3.648.456-6.613.684-3.192 1.14-7.068 1.14-6.613 1.14-33.064V561.488l247.866 196.56V622.142q0-15.506-.912-22.119-1.14-10.717-1.14-15.05 0-11.4 9.805-11.4 3.877 0 7.297 2.735 3.648 2.737 3.648 7.981v7.981l-.912 33.064v285.947l-247.865-194.508zm329.728-290.051h94.86q66.355 0 97.367 9.35 35.344 10.945 54.499 28.047 19.382 17.102 30.327 35.344 22.347 37.169 22.347 84.37 0 74.337-53.358 120.399-37.853 33.064-89.16 40.817-28.502 4.332-79.809 4.332h-77.073zm116.294 303.733q3.648.228 6.613.228h5.244q61.796 0 105.577-38.537 46.29-40.589 46.29-107.857 0-42.413-20.295-76.389-29.415-49.482-93.035-59.971-20.75-3.42-50.394-3.877z" aria-label="MAINLAND" fill="#fff" stroke="#000"/><path d="M270.478 1610.636h97.824q36.485 0 44.237.228 33.748 1.596 47.658 7.98 13.91 6.157 22.119 13.91 17.558 17.33 17.558 41.957 0 24.4-17.102 42.87-5.245 5.7-12.086 9.805 37.169 6.84 60.884 31.24 25.767 26.45 25.767 64.531 0 38.765-23.943 66.812-33.52 38.765-103.524 42.413-17.787.912-35.117.912H270.48zm149.586 112.189l11.63 1.368h3.648q18.014 0 31.24-13.226 14.138-14.137 14.138-34.66 0-25.083-21.663-38.536-10.945-6.841-21.89-7.981-10.718-1.368-16.875-1.824-12.77-.912-33.52-.912v289.366h25.311q38.765 0 63.164-9.577 29.187-10.033 46.29-32.38 16.19-21.206 16.19-44.465 0-23.259-6.841-39.22-6.841-15.963-19.839-27.136-26.45-23.03-73.653-23.03l-15.733 1.367q-7.297 0-10.718-2.964-3.42-2.965-3.42-6.84 0-9.35 12.541-9.35zm189.491-112.189H725.85v322.658H609.555zm463.352 306.012l.456-15.734v-36.028q-32.152 53.586-94.86 68.18-19.838 4.56-46.29 4.56-26.222 0-54.498-10.945-28.047-10.945-49.254-31.695-46.517-45.15-46.517-118.803 0-70.46 49.254-119.258 51.306-50.394 128.835-50.394 39.22 0 70.917 14.594 19.382 8.665 27.363 16.19 7.98 7.297 7.98 11.857 0 4.333-2.735 7.525-2.737 3.192-7.753 3.192-4.789 0-10.718-5.244-17.558-15.506-31.011-20.295-13.226-4.788-21.207-6.84-7.98-2.053-14.366-2.965-9.805-1.368-23.258-1.368-13.454 0-24.855 2.28v295.068q2.508.228 5.016.228h4.56q67.725 0 109.682-51.306 14.366-17.559 23.715-41.501v-21.891l-1.14-20.522q0-12.086 9.577-12.086 5.016 0 7.753 3.42 2.736 3.193 2.736 7.981l-1.368 18.927v84.826l1.368 35.344q0 5.473-3.192 8.665-2.965 3.193-7.07 3.193-10.032 0-10.032-10.49 0-2.736.912-8.665zm202.716-306.012h97.824q36.484 0 44.237.228 33.748 1.596 47.658 7.98 13.91 6.157 22.118 13.91 17.558 17.33 17.558 41.957 0 24.4-17.102 42.87-5.244 5.7-12.085 9.805 37.169 6.84 60.883 31.24 25.767 26.45 25.767 64.531 0 38.765-23.943 66.812-33.52 38.765-103.524 42.413-17.786.912-35.116.912h-124.275zm149.586 112.189l11.63 1.368h3.648q18.014 0 31.24-13.226 14.137-14.137 14.137-34.66 0-25.083-21.662-38.536-10.946-6.841-21.891-7.981-10.717-1.368-16.874-1.824-12.77-.912-33.52-.912v289.366h25.311q38.765 0 63.163-9.577 29.188-10.033 46.29-32.38 16.19-21.206 16.19-44.465 0-23.259-6.84-39.22-6.842-15.963-19.84-27.136-26.45-23.03-73.652-23.03l-15.734 1.367q-7.297 0-10.717-2.964-3.42-2.965-3.42-6.84 0-9.35 12.54-9.35zm250.374 169.88q-41.73 0-57.007-.684l-6.613 15.734q-2.964 6.613-5.472 13.91-5.245 14.138-14.594 14.138-4.333 0-7.069-2.737-2.736-2.736-2.736-5.7 0-5.017 4.332-11.174 6.841-9.577 13.454-25.083-19.61-1.824-19.61-11.401t11.173-9.577q6.84 0 15.962 2.28l113.785-276.37 155.971 337.253h-118.802l-18.926-40.589zm-49.71-18.47q21.89 1.824 39.22 1.824h66.813l-57.007-122.906zm322.431 26.451l.684 22.803q0 5.929-3.193 9.121-3.192 3.193-7.753 3.193-4.332 0-7.296-2.965-2.965-2.964-2.965-6.385 0-3.648.456-6.612.684-3.193 1.14-7.07 1.14-6.612 1.14-33.063v-283.666l247.866 196.56v-135.905q0-15.506-.912-22.119-1.14-10.717-1.14-15.05 0-11.4 9.805-11.4 3.877 0 7.297 2.735 3.648 2.737 3.648 7.981v7.981l-.912 33.064v285.947l-247.865-194.508zm329.727-290.05h94.86q66.355 0 97.367 9.349 35.344 10.945 54.499 28.047 19.382 17.102 30.327 35.344 22.347 37.169 22.347 84.37 0 74.337-53.358 120.399-37.853 33.064-89.159 40.817-28.503 4.332-79.81 4.332h-77.073zm116.294 303.732q3.649.228 6.613.228h5.245q61.795 0 105.576-38.537 46.29-40.588 46.29-107.857 0-42.413-20.295-76.389-29.415-49.482-93.035-59.971-20.75-3.42-50.394-3.876z" aria-label="BIG BAND"/></g></svg>