<?xml version="1.0" encoding="UTF-8"?>
<svg version="1.0" viewBox="0 0 705.84 372.68" xmlns="http://www.w3.org/2000/svg">
 <g transform="translate(-267.79 -217.45)">
  <g transform="matrix(1.317 0 0 1.2905 -884.55 -343.33)">
   <path d="m990.98 700.17c-11.77 26.725-34.739 19.482-39.557 17.36-4.816-2.123-24.494-14.454-15.52-34.824 8.973-20.37 25.601-11.214 26.917-10.635 1.313 0.579 12.407 6.256 7.006 18.518-4.628 10.512-14.358 6.491-16.551 5.526-2.194-0.964-5.081-7.473-5.081-7.473s-0.285 9.554 6.503 12.546c6.796 2.993 15.53-0.229 18.908-7.893 3.374-7.663 1.104-19.122-10.291-24.142-11.39-5.015-23.744-1.309-29.536 11.838-2.411 5.473-2.024 11.135-2.024 11.135s-7.231-25.153-24.972-32.968c-17.74-7.815-27.354 1.544-30.635 8.992-3.283 7.45 0.712 16.791 7.499 19.779 6.792 2.992 14.183 0.227 17.01-7.145 3.522-9.178-5.627-12.161-5.627-12.161s6.847 4.057 3.465 11.731c-3.375 7.66-11.229 7.081-14.514 5.633-3.283-1.444-9.6-7.885-5.353-17.53 4.246-9.639 16.173-11.186 25.81-6.94 9.639 4.244 9.938 14.84 9.938 14.84s6.407 0.338 8.855 3.642c4.595 6.205 9.226 24.198 12.513 28.002 0 0-13.527-4.913-15.691 10.095 0 0 4.335-12.219 16.363-5.086 12.027 7.124 38.677 23.83 57.342-10.838m-69.76-39.37c-3.047-3.179-4.722-2.347-4.722-2.347l1.962 5.054s6.577 5.247 8.48 13.408c0 0 3.857-8.761 8.218-11.543l2.319-5.262s-4.742-0.516-6.022 1.796c-1.279 2.314-2.92 6.039-4.562 9.764 0 0-2.63-7.7-5.68-10.87m9.33-2.17l-1.951-9.23-4.955 8.281 3.838 6.137 3.07-5.19-2e-3 2e-3zm27.02 3.65c-0.975 3.15 4.217 4.362 5.08 1.562 1.02-3.33-4.11-4.72-5.08-1.56m-6.92-1.41c-0.772 2.521 3.377 3.495 4.063 1.249 0.82-2.66-3.28-3.78-4.06-1.25m-5.66 0.79c-0.621 2.018 2.705 2.795 3.26 0.998 0.65-2.13-2.63-3.02-3.26-1m-4.27 1.23c-0.501 1.615 2.161 2.235 2.602 0.796 0.53-1.71-2.11-2.42-2.6-0.8m-3.96 2.8c-0.396 1.292 1.731 1.792 2.086 0.645 0.42-1.37-1.69-1.94-2.09-0.65" fill="#593d2c"/>
   <path d="m1139.5 536.69c1.927 1.469 4.405 2.984 7.435 4.543 0.118 8e-3 0.234 0.011 0.346 0.011 2.983 0 4.475-2.345 4.475-7.033v-27.678c0-1.284-2.251-3.211-6.747-5.783l-5.508 4.82v31.125l-1e-3 -5e-3z" fill="#593d2c"/>
   <path d="m1105.8 527.72c0-3.62-0.293-6.205-0.885-7.757-0.794-2.217-2.207-3.324-4.24-3.324-0.337 0-0.691 0.031-1.065 0.092-3.284 0.517-4.927 2.585-4.927 6.205v22.365c-0.26 2.414 0.168 4.742 1.279 6.982 1.276 2.584 3.065 3.878 5.365 3.878 0.768 0 1.703-0.731 2.812-2.197 1.106-1.465 1.661-2.629 1.661-3.491v-22.759 6e-3z" fill="#593d2c"/>
   <path d="m1183.8 511.97c4.486-2.286 8.55-4.526 12.19-6.73l-9.268-13.205-2.923 1.396v18.53l1e-3 9e-3z" fill="#593d2c"/>
   <path d="m957.86 503.17v51.471l19.749-12.289v-18.548c-0.01-4.32-6.59-11.2-19.75-20.63" fill="#593d2c"/>
   <path d="m1289.2 479.48l-2.768 1.324v17.575c4.254-2.167 8.104-4.291 11.557-6.38l-8.8-12.52 0.011 1e-3z" fill="#593d2c"/>
   <path d="m1024 530.5l-6.953 4.439v16.567l1.603-0.592c0.482 0 3.004-1.132 7.564-3.401 4.559-2.268 7.522-4.091 8.88-5.472l-11.1-11.55 6e-3 9e-3z" fill="#593d2c"/>
   <polygon points="977.6 546.29 957.86 558.35 957.86 573.42 977.6 560.43" fill="#593d2c"/>
   <path d="m1381.8 481.36c-1.595-1.249-3.561-1.978-5.581-2.073 0.29-0.897 0.802-1.028 1.486-1.201 4.866-1.23 7.995-5.909 7.279-10.877-1.063-7.388-6.253-10.009-10.375-10.009-2.546 0-5.371 0.689-12.183 4.178-0.416 0.094-1.479 0.292-3.61 0.486-0.016 0-0.155 0.015-0.171 0.017-5.183 0.562-9.064 2.198-11.872 5.001-0.677 0.677-1.243 1.442-1.688 2.277-1.714-0.227-3.471 0.018-5.055 0.685-1.93-1.448-2.455-1.896-2.555-1.981-2.518-2.208-6.13-2.979-9.326-1.993-3.036 0.935-5.386 3.232-6.389 6.213-0.227 0.213-0.696 0.608-1.544 1.126-0.207 0.126-0.414 0.248-0.621 0.362l-5.524-0.745c-1.337-0.648-2.797-0.988-4.259-0.988-0.511 0-1.039 0.051-1.603 0.151-1.235-2.043-2.353-3.909-3.355-5.587-0.431-0.723-0.953-1.389-1.559-1.981-1.813-1.779-4.314-2.8-6.867-2.8-3.729 3e-3 -5.793 1.686-9.51 4.739-1.643 1.229-2.63 1.953-3.214 2.373l-4.849-0.653c3.064-3.516 4.773-5.154 5.582-5.861 2.283-1.998 3.526-4.999 3.319-8.03-0.206-3.029-1.845-5.835-4.38-7.504-2.272-1.496-3.916-3.507-5.025-6.148-1.074-2.56-3.195-4.549-5.817-5.457-2.601-0.898-5.546-0.644-7.948 0.69l-16.553 9.182c-0.25 0.075-0.71 0.165-1.479 0.165-0.229 0-0.468-7e-3 -0.721-0.024-3.665-0.237-7.18 1.631-9.04 4.765-1.889 3.178-1.836 7.095 0.141 10.223 0.632 1 1.001 1.656 1.207 2.044 0.033 0.531 0.071 1.459 0.078 2.995-2.065-1.584-4.814-2.305-7.446-1.896-2.688 0.417-5.028 1.923-6.53 4.077-1.814-2.609-4.801-4.191-8.025-4.191-0.697 0-1.396 0.074-2.082 0.223-3.596 0.783-6.415 3.488-7.363 6.997-0.577 0.65-2.1 2.152-5.64 4.639-0.324 0.229-0.635 0.477-0.929 0.741-1.689-1.265-3.782-1.974-5.904-1.974-3.744 1e-3 -5.872 1.735-9.706 4.884-2.604 1.953-3.656 2.701-4.054 2.974-1.226 0.636-2.373 0.933-3.603 0.933-0.133 0-0.263-3e-3 -0.503-0.017-0.714-0.028-0.966-0.165-0.977-0.169-1.451-0.808-3.094-1.235-4.758-1.235-2.741 0-5.376 1.162-7.226 3.19-0.883 0.966-1.548 2.073-1.975 3.256-3.054-2.139-3.66-2.635-3.663-2.636-2.335-2.004-5.604-2.788-8.56-2.104v-11.945c0-3.58 0.793-4.262 3.719-4.896 4.467-0.97 7.711-4.99 7.711-9.563v-0.55c0-5.268-4.122-9.561-9.385-9.776-2.979-0.119-6.925 0.325-17.571 5.532-6.739 3.297-9.509 3.552-10.161 3.552l-0.344-3e-3c-4.522 0-8.431 3.067-9.503 7.461-1.021 4.173 0.856 8.553 4.533 10.745 5e-3 0.075 5e-3 0.158 5e-3 0.251v31.051c-5.117-2.613-8.623-4.366-10.664-5.324-3.53-1.659-7.885-0.999-10.761 1.628l-2.592 2.366c-0.01 0.01-0.091 0.084-0.1 0.095-3.163 2.975-5.47 4.029-6.483 4.029-0.68 0-1.896-0.125-3.823-0.724-1.051-0.326-2.148-0.475-3.239-0.432 3.52-1.913 5.591-5.849 4.995-9.985-1.064-7.388-6.255-10.009-10.378-10.009-2.606 0-5.338 0.671-12.183 4.179-0.414 0.092-1.476 0.291-3.627 0.486l-0.153 0.015c-5.183 0.562-9.066 2.197-11.872 5.002-3.231 3.229-3.807 8.195-1.398 12.076 0.865 1.395 1.177 2.197 1.291 2.562 0.039 0.163 0.146 0.63 0.36 1.754v1.243c-2.331 0.676-4.331 2.201-5.6 4.267-0.587-0.649-1.085-1.226-1.498-1.731-1.868-2.281-4.628-3.588-7.576-3.588-1.82 0-3.601 0.507-5.153 1.47l-1.034 0.643v-12.859c0.286-2.242 0.484-3.976 0.612-5.271 0.023-0.049 0.048-0.097 0.079-0.15 3.938-0.525 7.209-3.395 8.19-7.335 0.415-1.67 0.585-2.828 0.585-3.991 0-6.144-4.556-9.842-9.058-10.323-5.501-0.579-11.769 0.707-19.155 3.949-4.723 2.074-6.716 2.653-7.296 2.798-4.099 0.117-7.693 2.771-8.997 6.68-0.049 0.15-0.096 0.3-0.139 0.451-0.244-0.213-0.489-0.428-0.74-0.645-13.403-11.592-18.719-13.859-23.37-13.859-3.554 0-5.48 1.044-14.729 7.994-11.855 8.953-23.485 15.04-34.553 18.088-9.496 2.568-12.69 3.798-14.563 4.854-3.98 2.244-5.891 7.039-4.546 11.403 1.117 3.626 4.146 6.208 7.795 6.782v21.953c-2.879 1.183-5.569 3.174-8.026 5.943-3.733 4.206-5.863 8.894-6.333 13.933-0.255 2.734 0.66 5.467 2.509 7.496 1.851 2.032 4.485 3.196 7.232 3.196 1.204 0 2.72-0.112 4.618-0.335v24.865c0 3.159-2.066 10.219-15.896 21.994-2.934 2.496-4.13 6.499-3.05 10.196 1.082 3.696 4.247 6.424 8.061 6.946 19.025 2.609 35.623 7.703 49.329 15.137 1.43 0.776 3.043 1.186 4.664 1.186 2.219 0 4.396-0.766 6.127-2.157 21.404-17.188 35.58-27.817 42.104-31.575 1.837-1.031 4.057-2.207 6.596-3.496 3.939-2 6.623-3.887 8.446-5.941 2.217-2.496 3.006-5.907 2.107-9.125-0.845-3.028-3.059-5.431-5.977-6.527-0.104-0.166-0.264-0.453-0.444-0.91 0.161 7e-3 0.327 0.011 0.49 0.011h1.33c4.758 0 8.778-3.399 9.623-8.013 0.306-0.383 1.113-1.257 2.94-2.521 1.953 1.321 3.385 2.959 4.353 4.979 1.466 3.056 4.35 5.109 7.717 5.491 3.389 0.39 6.657-0.99 8.752-3.617 0.282-0.352 1.369-1.631 5.399-5.911 9e-3 -7e-3 0.09-0.096 0.099-0.105 2.911-3.189 3.695-4.11 4.115-4.632 0.788-0.985 1.371-2.114 1.729-3.311 1.765 1.815 4.158 2.873 6.708 2.941l0.292 5e-3c2.902 0 5.636-1.276 7.5-3.501 5.533-6.606 7.241-7.89 7.31-7.941 1.108-0.814 2.021-1.849 2.69-3.022 3.87 2.204 7.389 4.294 10.494 6.233 1.556 0.971 3.346 1.485 5.177 1.485 3.027 0 5.836-1.367 7.701-3.75 1.675-2.132 4.132-3.94 7.33-5.381 0.609-0.279 1.027-0.386 1.302-0.422 0.549 0.072 2.078 0.3 5.82 0.987 3.997 0.733 8.139-1.173 10.189-4.646 0.847-1.431 1.289-3.021 1.347-4.619l7.234 3.925c1.428 0.775 3.041 1.185 4.662 1.185 2.771 0 5.424-1.181 7.276-3.24 2.206-2.45 3.911-4.288 5.072-5.463 1.536-1.317 3.03-2.033 4.563-2.185 0.405 0.021 2.103 0.151 6.649 1.059 0.632 0.126 1.277 0.191 1.92 0.191 3.496 0 6.746-1.885 8.485-4.919 0.589-1.025 0.971-2.132 1.154-3.262 1.012 0.726 2.029 1.51 3.046 2.352 1.752 1.45 3.967 2.247 6.239 2.247 2.232 0 4.419-0.773 6.155-2.179l16-12.952c0.439-0.355 0.846-0.749 1.213-1.172 0.301 0.356 0.506 0.609 0.647 0.787 1.272 1.584 2.97 2.715 4.915 3.277 1.111 0.421 2.274 0.634 3.465 0.634 2.634 0 5.104-1.029 6.954-2.9 1.317-1.329 2.242-3.033 2.648-4.852 0.188-0.254 0.517-0.659 1.061-1.225 1.619-1.693 2.481-2.238 2.636-2.33 0.96-0.563 1.816-1.295 2.549-2.177 1.155-0.98 2.629-2.171 4.292-3.382v61.792c0 5.053 3.946 9.337 8.982 9.751 1.694 0.139 2.291 0.165 2.802 0.165 5.104 0 9.294-3.834 9.746-8.92 0.125-1.421 0.132-3.096 0.035-8.152-0.119-5.959 2e-3 -6.375 0.361-7.604 0.154-0.524 0.327-1.115 0.52-1.849 0.939-3.603 2.229-3.822 3.365-4.013 3.905-0.661 7.006-3.581 7.9-7.439 0.77-3.328-0.228-6.747-2.611-9.124-0.178-0.707-0.472-2.317-0.472-5.327v-15.566c0.366 0.176 0.737 0.329 1.117 0.458 0.489 0.203 1.08 0.418 1.796 0.656 3.285 1.327 6.739 3.48 10.265 6.398 1.75 1.449 3.967 2.247 6.239 2.247 2.233 0 4.419-0.773 6.156-2.178l2.354-1.907c0.042 1.504 0.427 2.998 1.149 4.347 0.992 2.138 2.718 3.841 4.868 4.807 3.436 1.542 7.62 0.911 10.447-1.563 1.18 0.523 2.389 1.394 3.658 2.638 2.054 2.014 4.883 3.017 7.754 2.752 2.869-0.268 5.461-1.775 7.111-4.137 3.483-4.983 6.591-4.983 7.922-4.983 0.247 0 1.072 0.038 2.722 0.458 0.011 0.529 0.065 1.055 0.162 1.574 0.599 3.178 2.727 5.85 5.689 7.15 1.11 0.487 2.082 1.227 2.979 2.27 1.321 1.534 2.275 2.685 2.826 3.422 1.805 2.404 4.561 3.829 7.539 3.91l0.291 5e-3c2.902 0 5.636-1.276 7.499-3.502 5.533-6.605 7.239-7.888 7.311-7.939 2.72-1.999 4.2-5.201 3.967-8.567-0.226-3.211-1.978-6.056-4.717-7.701v-6.043c5.307-0.103 9.593-4.452 9.593-9.782v-19.648c0.6-3.08-0.8-5.89-3.2-7.76m-122.7 2.56v55.569c0 6.566 1.11 10.646 3.333 12.243-5.777 0.976-9.509 4.703-11.197 11.178-0.978 3.726-1.378 3.164-1.198 12.124 0.086 4.524 0.086 6.123 0 7.099-0.269 0-0.934-0.046-2-0.133v-98.08l-7.6-0.14c0.071-0.244 0.156-0.508 0.238-0.767-3.853 2.635-6.317 6.022-7.376 10.173-0.746-1.077-1.89-2.758-3.424-5.041-1.536-2.281-3.05-3.423-4.541-3.423-1.329 0-2.24 0.581-2.739 1.743-0.083 0.083-0.372 1.163-0.871 3.236v19.915c0 1.992 0.171 3.319 0.513 3.981 0.681 1.577 2.086 2.823 4.216 3.734-1.411 0.83-2.985 2.159-4.729 3.983-2.174 2.256-3.373 4.198-3.592 5.827 0.048 0.038 0.042 0.087-0.019 0.147 5e-3 -0.049 0.011-0.097 0.019-0.147-0.085-0.066-0.341-0.102-0.765-0.102-0.665-0.83-1.866-2.24-3.609-4.231-2.573-2.988-4.647-4.73-6.222-5.228 0.993-0.997 1.742-1.701 2.24-2.115 1.574-1.825 2.362-3.401 2.362-4.729v-21.41c-0.746-1.906-1.327-3.151-1.742-3.732-0.914-1.326-2.114-2.198-3.608-2.614 6.14-4.313 9.293-7.674 9.458-10.082 3.153 5.808 5.934 8.711 8.341 8.711 3.566 0 6.139-2.903 7.716-8.711 1.642 2.545 4.464 5.824 8.462 9.826 0.405-1.255 0.939-2.676 1.604-4.27 0.602-0.088 1.353-0.133 2.254-0.133 0.902 0 1.954 0.044 3.155 0.133 0.171-6.575 0.259-10.841 0.259-12.796 0-3.02-0.103-4.999-0.305-5.932-0.204-0.933-1.035-2.554-2.495-4.866 0.46 0.03 0.912 0.046 1.35 0.046 2.183 0 4.088-0.371 5.717-1.111l17.061-9.466c1.868 4.445 4.753 7.956 8.665 10.531-2.133 1.865-5.065 5.021-8.8 9.464-1.331-0.887-4.71-4.397-10.13-10.529v24.659h10.798l-2.159 5.466h-8.9 0.26zm-135.6 58.55c2.661-1.284 4.175-3.304 4.543-6.059v-62.79c0-4.22-1.606-7.112-4.817-8.674 0.1 2e-3 0.201 4e-3 0.305 4e-3 3.468 0 8.3-1.517 14.497-4.547 6.199-3.032 10.429-4.548 12.685-4.548 0.064 0 0.128 2e-3 0.191 4e-3v0.55c-7.622 1.653-11.43 6.472-11.43 14.458v31.946l11.979-10.465c0.642 0.551 2.616 1.976 5.922 4.268 4.22 2.94 7.248 4.637 9.088 5.096v0.551c-2.389 0.735-3.58 2.478-3.58 5.232v26.988c0.365 2.846 1.652 5.508 3.854 7.987-4.179-0.834-7.063-1.251-8.653-1.251-0.158 0-0.303 4e-3 -0.434 0.011-3.856 0.275-7.437 1.882-10.741 4.82-1.286 1.287-3.167 3.304-5.646 6.059l-17.9-9.64h0.137zm-27.8 22.36c-4.569-2.853-9.741-5.875-15.515-9.074 0.259-0.258 0.602-0.58 1.034-0.971 0.432-0.388 0.729-0.668 0.905-0.843 1.377-1.814 2.069-4.017 2.069-6.611-0.089-10.629-0.089-17.974 0-22.036-0.346-2.68-1.423-5.745-3.233-9.203 2.499 0.774 4.74 1.163 6.724 1.163 4.05 0 8.446-2.229 13.187-6.689 0.861-0.787 1.723-1.573 2.586-2.36 2.758 1.295 8.488 4.193 17.195 8.685-2.932 2.595-4.396 5.012-4.396 7.258v23.853c0 2.247 0.288 3.934 0.87 5.058 0.25 0.518 1.079 1.642 2.491 3.369-4.223-0.776-6.681-1.164-7.367-1.164-1.813 0-3.665 0.438-5.562 1.312-4.6 2.08-8.3 4.83-11 8.24m-66.1 1.03v-3.698c-0.098-1.085-0.146-2.167-0.146-3.255 0-2.267-1.803-4.633-5.408-7.101l-7.018 3.241c-0.395 5.205-0.395 9.574 0 13.111 0.478 4.024 1.855 6.43 4.142 7.214-6.508 3.735-9.961 7.367-10.354 10.902h-1.33c-1.383-2.856-2.589-4.946-3.624-6.279-1.037-1.33-3.032-2.83-5.991-4.503 3.254-3.841 4.88-6.499 4.88-7.976v-65.288c0-3.249-0.094-5.267-0.283-6.056-0.476-2.066-1.613-3.691-3.414-4.874 0.062 4e-3 0.123 6e-3 0.188 6e-3 1.67 0 5.255-1.208 10.758-3.626 4.945-2.17 9.154-3.256 12.624-3.256 0.544 0 1.068 0.027 1.577 0.081 0.195 0 0.295 0.199 0.295 0.591 0 0.296-0.1 0.84-0.295 1.627-2.071 0-3.871 0.814-5.4 2.441-1.53 1.626-2.539 3.476-3.03 5.547-0.101 1.283-0.348 3.453-0.741 6.508v29.88c-0.1 0.1-0.1 0.495 0 1.184l15.976-9.912c2.663 3.255 7.841 8.532 15.532 15.829-1.578 1.382-4.784 3.206-9.615 5.472-5.129 2.468-8.629 4.341-10.501 5.621 0.686 0.986 2.365 1.923 5.028 2.811 2.367 0.789 4.29 1.183 5.769 1.183 0.688 0 2.813-0.197 6.36-0.591-2.17 1.974-3.305 3.306-3.401 3.995-0.1 0.098-0.146 1.38-0.146 3.846 0 0.986-0.053 2.217-0.151 3.696-0.098 1.776-0.098 3.306 0 4.587 0.198 1.875 0.494 3.306 0.889 4.291 0.196 0.396 0.813 0.888 1.849 1.479 1.036 0.592 1.555 0.937 1.555 1.034-0.396 0.495-1.628 1.875-3.699 4.144-3.156 3.353-5.127 5.521-5.915 6.508-2.271-4.736-5.971-8.332-11.094-10.797 2.5-0.67 3.9-3.87 3.9-9.59m-112.89 34.45v-25.039c0-6.493-3.134-9.739-9.4-9.739-2.269 0.311-3.933 0.464-5.001 0.464 0.273-2.936 1.575-5.717 3.908-8.347 2.331-2.626 4.731-3.941 7.2-3.941 2.075 0 3.173 0.064 3.293 0.184v-31.02c0-6.21-2.398-9.319-7.191-9.319-0.335 0-0.68 0.016-1.039 0.046 1.371-0.772 5.485-2.086 12.344-3.943 12.343-3.397 24.959-9.968 37.853-19.706 5.348-4.018 8.295-6.029 8.847-6.029 2.468 0 8.125 3.827 16.97 11.477 8.846 7.651 13.27 13.332 13.27 17.042v72.103c0 12.675 2.741 19.863 8.228 21.562-0.959 1.082-2.812 2.316-5.554 3.71-2.745 1.39-5.075 2.63-6.994 3.709-6.995 4.021-21.464 14.839-43.406 32.46-14.813-8.036-32.368-13.449-52.663-16.231 12.93-10.97 19.37-20.78 19.37-29.44m154.09-70.92h-3.93v25.404c-0.538 2.834 1.04 5.25 4.738 7.242-1.773 1.304-4.776 4.484-9.015 9.541-0.692-0.924-1.772-2.234-3.234-3.93-1.851-2.156-4.008-3.775-6.474-4.856l2.658-2.657c1.31-1.31 1.965-3.005 1.965-5.085v-25.659h-7.05c-0.078-3.93-0.078-6.048 0-6.356h7.05v-11.558c-0.36-1.927-0.609-3.121-0.753-3.584-0.432-1.463-1.221-3.121-2.367-4.971 1.155-1.155 3.159-1.886 6.008-2.195 3.393-0.308 5.627-0.733 6.705-1.273 4.314-2.233 7.051-3.351 8.206-3.351 0.307 0 0.538 0.542 0.693 1.618-6.088 1.542-9.131 5.972-9.131 13.293v12.02h4.738c1.817-1.08 3.039-2.697 3.671-4.854 0.079 0.077 0.219 0.116 0.414 0.116 0.197 0 0.455-0.039 0.771-0.116v19.648h-1.387c-0.1-4.87-1.5-7.68-4.3-8.43m98.9 0.23c2.622-2.201 3.937-3.683 3.937-4.443 0-0.425 0.041-2.414 0.126-5.97v-20.951c0-1.526-0.339-2.921-1.015-4.191-0.254-0.509-0.931-1.565-2.033-3.176 1.524 0.848 3.304 1.314 5.334 1.397 0.303 0.017 0.603 0.023 0.903 0.023 2.979 0 5.853-0.769 8.62-2.308 0.677-0.423 2.37-1.652 5.08-3.683 2.271-1.866 3.494-2.798 3.665-2.798 9e-3 0 0.014 1e-3 0.019 6e-3 2.874 4.823 6.645 11.046 11.3 18.666l-21.843 12.191v10.157c4.742 3.471 7.536 5.206 8.381 5.206 0.765 0 3.559-1.651 8.383-4.953l1.144 1.144-16 12.952c-5.4-4.5-10.7-7.59-16-9.28m106.3-48.22c-0.24-0.481-0.883-1.484-1.926-3.009 1.444 0.802 3.129 1.245 5.057 1.324 0.285 0.015 0.572 0.023 0.855 0.023 2.825 0 5.548-0.73 8.172-2.189 0.641-0.401 2.246-1.565 4.814-3.49 2.154-1.771 3.313-2.654 3.476-2.655 7e-3 0 0.013 2e-3 0.015 5e-3 2.728 4.574 6.302 10.473 10.715 17.695l-20.705 11.556v9.63c4.493 3.292 7.142 4.936 7.945 4.936 0.723 0 3.37-1.565 7.944-4.695l1.084 1.084-15.167 12.278c-5.137-4.253-10.192-7.181-15.169-8.788 2.487-2.084 3.733-3.49 3.733-4.212 0-0.401 0.038-2.288 0.118-5.657v-19.863c0.1-1.45-0.3-2.77-0.9-3.98m55-6.18c0.668 0.585 2.131 1.716 4.392 3.387 2.675 2.009 4.435 3.013 5.273 3.013 0.166 0 0.688-0.439 1.568-1.318 0.878-0.88 1.398-1.359 1.566-1.444 0.084 0.084 0.378 0.251 0.88 0.501-0.757 1.843-3.66 5.398-8.71 10.669-4.883-3.765-7.87-5.646-8.962-5.646-2.863 0-4.293 1.087-4.293 3.263v10.669c0 2.76 1.882 4.14 5.648 4.14 2.341 0 5.354-1.42 9.035-4.267 0.419 0.336 1.715 1.339 3.893 3.013 1.256 1.003 3.094 2.177 5.523 3.514-0.672 0.336-1.299 1.129-1.884 2.384-0.085 0.672-0.293 1.381-0.627 2.134v9.539c0 0.923 0.753 2.971 2.259 6.15-2.763-0.835-5.064-1.254-6.903-1.254-6.36 0-11.673 3.055-15.94 9.162-4.102-4.017-8.494-6.025-13.18-6.025-0.251 0-1.507 1.004-3.766 3.013 0-0.166-0.082-0.334-0.252-0.503 0.673-1.506 3.934-5.187 9.792-11.045 4.601 1.256 8.742 3.349 12.427 6.277 3.177-0.669 4.77-2.553 4.77-5.649 0-4.351-0.126-7.071-0.379-8.159-0.752-3.344-2.508-5.021-5.271-5.021-4.016 0-7.073 1.676-9.163 5.021-2.258-1.924-5.146-4.057-8.66-6.401 0.418-0.333 0.961-0.753 1.631-1.254 1.088-1.339 1.508-2.636 1.256-3.893v-9.664c-0.168-1.004-0.293-1.8-0.377-2.385-0.502-2.008-1.425-3.848-2.761-5.522 0.083 0.083 0.88 0.587 2.384 1.506 1.84 0.921 3.346 1.38 4.52 1.38 2.511 0 5.375-0.981 8.598-2.949 3.5-1.94 5.4-4.06 5.9-6.32m25.8 18.7v-11.56c-0.359-1.925-0.609-3.12-0.753-3.582-0.431-1.462-1.221-3.121-2.367-4.97 1.156-1.155 3.157-1.888 6.011-2.197 3.39-0.307 5.623-0.73 6.703-1.27 4.313-2.235 7.051-3.353 8.207-3.353 0.306 0 0.537 0.541 0.692 1.619-6.088 1.542-9.131 5.971-9.131 13.292v12.02h4.737c1.815-1.079 3.04-2.696 3.671-4.854 0.079 0.077 0.218 0.115 0.414 0.115 0.198 0 0.456-0.038 0.771-0.115v19.648h-1.389c0-4.875-1.426-7.686-4.273-8.438h-3.932v25.404c-0.541 2.836 1.041 5.251 4.74 7.242-1.773 1.304-4.779 4.485-9.016 9.542-0.695-0.926-1.774-2.235-3.237-3.93-1.85-2.155-4.007-3.774-6.472-4.855l2.658-2.658c1.311-1.31 1.964-3.006 1.964-5.085v-25.66h-7.05c-0.077-3.93-0.077-6.049 0-6.356h7l0.052 1e-3z" fill="#593d2c"/>
   <path d="m977.6 609.59v-45.443l-19.75 13.214v46.372l8.642 2.782c7.41-3.87 11.11-9.52 11.11-16.93" fill="#593d2c"/>
   <path d="m937.7 518.93v79.062l-16.664 15.302c13.988 2.473 25.099 5.719 33.328 9.736v-121.49c-0.408-0.309-1.561-0.464-3.456-0.464-3.119 0-6.098 2.166-8.938 6.492-2.45 3.71-3.87 7.5-4.27 11.36" fill="#593d2c"/>
   <path d="m1218.1 527.14c-8e-3 0.049-0.014 0.098-0.02 0.147 0.1-0.07 0.1-0.11 0-0.15" fill="#ffcd49"/>
   <path d="m1036.6 586.27c0.787-0.989 2.759-3.157 5.916-6.508 2.07-2.269 3.303-3.649 3.698-4.144 0-0.097-0.519-0.442-1.555-1.034-1.033-0.591-1.652-1.083-1.849-1.48-0.395-0.984-0.691-2.417-0.889-4.29-0.098-1.281-0.098-2.811 0-4.585 0.099-1.48 0.151-2.711 0.151-3.699 0-2.464 0.046-3.747 0.146-3.847 0.096-0.687 1.231-2.019 3.402-3.993-3.549 0.396-5.673 0.592-6.36 0.592-1.479 0-3.404-0.395-5.77-1.184-2.663-0.888-4.34-1.825-5.028-2.811 1.872-1.28 5.372-3.154 10.501-5.621 4.829-2.267 8.037-4.091 9.615-5.472-7.691-7.297-12.869-12.575-15.532-15.83l-15.976 9.911c-0.1-0.688-0.1-1.084 0-1.183v-29.88c0.394-3.056 0.641-5.226 0.74-6.509 0.492-2.07 1.503-3.92 3.031-5.547 1.529-1.627 3.329-2.441 5.4-2.441 0.195-0.788 0.294-1.332 0.294-1.627 0-0.393-0.099-0.593-0.294-0.593-0.509-0.051-1.032-0.079-1.577-0.079-3.47 0-7.679 1.085-12.625 3.256-5.502 2.418-9.087 3.626-10.757 3.626-0.065 0-0.128-2e-3 -0.188-7e-3 1.802 1.185 2.938 2.808 3.414 4.875 0.189 0.786 0.284 2.805 0.284 6.056v65.287c0 1.477-1.627 4.135-4.881 7.976 2.959 1.673 4.954 3.174 5.991 4.503 1.035 1.333 2.241 3.424 3.624 6.279h1.33c0.394-3.535 3.847-7.167 10.354-10.902-2.286-0.784-3.664-3.189-4.142-7.214-0.395-3.537-0.395-7.907 0-13.109l7.018-3.241c3.605 2.466 5.408 4.833 5.408 7.099 0 1.086 0.049 2.17 0.146 3.255v3.698c0 5.72-1.382 8.926-4.139 9.617 5.3 2.44 9 6.03 11.3 10.77m-22.6-11.76c-1.541 1.148-2.851 2.311-3.935 3.491-0.208-0.3-0.412-0.578-0.616-0.838-0.119-0.153-0.255-0.305-0.385-0.458-0.461 0.431-0.901 0.862-1.301 1.296-0.208-0.3-0.413-0.578-0.615-0.838-0.732-0.938-1.688-1.863-2.916-2.807 1.938-2.799 2.774-4.921 2.774-6.848v-65.287c0-4.765-0.198-6.245-0.411-7.132-0.082-0.359-0.18-0.71-0.291-1.057 1.428-0.541 3.122-1.236 5.148-2.124-0.132 0.367-0.228 0.747-0.333 1.123 0.811-0.335 1.685-0.705 2.635-1.123-0.201 0.563-0.372 1.14-0.512 1.729l-0.084 0.351-0.027 0.359c-0.091 1.187-0.332 3.298-0.716 6.276l-0.038 0.292v29.602c-0.127 0.803-0.066 1.542 0 2.075v22.275c-0.399 5.392-0.391 10.032 0.03 13.796 0.2 2.42 0.8 4.34 1.5 5.85m24.4-35.68l-0.741-0.771c-0.482 0.244-0.998 0.498-1.56 0.771l-8.657-9.004 2.397-1.486c0.27 0.292 0.55 0.594 0.841 0.905l1.461-0.905c2.236 2.432 5.218 5.454 8.994 9.114-0.8 0.41-1.7 0.87-2.7 1.38m-12.2 8.68c-4.562 2.27-7.083 3.401-7.565 3.401l-1.603 0.593v-16.567l6.954-4.439 11.093 11.541c-1.4 1.39-4.3 3.21-8.9 5.48m5.7 18.35v-3.908l-0.021-0.208c-0.085-0.936-0.129-1.891-0.129-2.836 0-0.63-0.062-1.248-0.186-1.86 0.845 0.235 1.628 0.403 2.383 0.538-0.026-0.179-0.046-0.361-0.082-0.538 1.302 0.361 2.489 0.604 3.579 0.734-0.025 0.764-0.025 1.665-0.025 2.753 0 0.854-0.047 1.997-0.139 3.399-0.112 2.014-0.11 3.762 4e-3 5.242l0.012 0.122c0.243 2.323 0.634 4.131 1.193 5.527l0.067 0.168 0.08 0.162c0.203 0.406 0.449 0.787 0.754 1.152-0.104 0.114-0.214 0.232-0.323 0.355-0.728 0.771-1.367 1.455-1.93 2.061-0.362-0.431-0.739-0.849-1.128-1.257-0.421 0.448-0.82 0.874-1.176 1.257-1.297-1.552-2.776-2.958-4.432-4.211 0.6-2.06 1.2-4.86 1.2-8.63" fill="#ffcd49"/>
   <path d="m1112.3 555.26c0.688 0 3.145 0.388 7.368 1.164-1.412-1.727-2.241-2.851-2.491-3.369-0.582-1.123-0.868-2.811-0.868-5.057v-23.853c0-2.247 1.463-4.663 4.395-7.259-8.708-4.491-14.438-7.388-17.195-8.685-0.863 0.787-1.726 1.574-2.585 2.36-4.742 4.461-9.138 6.689-13.188 6.689-1.983 0-4.225-0.388-6.724-1.163 1.811 3.458 2.888 6.523 3.233 9.203-0.087 4.062-0.087 11.406 0 22.036 0 2.594-0.69 4.797-2.068 6.611-0.173 0.174-0.476 0.455-0.907 0.843-0.432 0.39-0.774 0.713-1.031 0.971 5.77 3.198 10.943 6.221 15.512 9.074 2.672-3.406 6.335-6.158 10.989-8.255 1.9-0.86 3.8-1.3 5.6-1.3m-10.4-42.24c1.384 0.684 3.117 1.552 5.192 2.606-0.858-1.063-1.914-1.876-3.132-2.382l0.241-0.224c2.349 1.158 5.672 2.841 10.037 5.08-1.318 2-1.968 4.003-1.968 6.05v23.853c0 1.185 0.072 2.262 0.215 3.235-0.07-2e-3 -0.134-2e-3 -0.192-2e-3 -0.831 0-1.669 0.068-2.51 0.204 0.01-0.065 7e-3 -0.129 0.015-0.196-0.768 0.01-1.541 0.071-2.317 0.196 0.05-0.321 0.073-0.642 0.073-0.958v-22.754c0-4.21-0.363-7.13-1.146-9.189-0.921-2.563-2.587-4.397-4.751-5.294l0.3-0.23-0.057 5e-3zm-17.7 41.63c1.178-2.148 1.77-4.602 1.77-7.322-0.086-10.573-0.086-17.946 0-21.951l7e-3 -0.302-0.04-0.301c-0.145-1.128-0.389-2.292-0.735-3.496 0.078 1e-3 0.154 1e-3 0.23 1e-3 1.021 0 2.051-0.105 3.094-0.315-0.015 0.09-0.019 0.185-0.031 0.276 0.772-0.039 1.549-0.118 2.334-0.276-0.094 0.63-0.142 1.288-0.142 1.975v22.165c-0.291 3.096 0.283 6.114 1.699 8.972 1.072 2.174 2.396 3.593 3.737 4.51-0.384 0.341-0.759 0.691-1.123 1.049-0.458-0.278-0.929-0.561-1.399-0.843-0.305 0.278-0.61 0.556-0.901 0.843-2.8-1.6-5.6-3.27-8.6-4.98m21.6-4.17c0 0.862-0.555 2.025-1.661 3.491-1.108 1.466-2.044 2.197-2.812 2.197-2.3 0-4.089-1.294-5.365-3.878-1.111-2.24-1.539-4.568-1.279-6.982v-22.365c0-3.62 1.643-5.688 4.927-6.206 0.374-0.061 0.729-0.092 1.065-0.092 2.033 0 3.446 1.107 4.24 3.324 0.592 1.552 0.885 4.137 0.885 7.757v22.765-0.011z" fill="#ffcd49"/>
   <path d="m1156 507.5v27.283l0.037 0.292c0.055 0.416 0.132 0.826 0.215 1.236 0.063-0.657 0.104-1.349 0.104-2.097v-27.678c0-0.447-0.063-0.875-0.155-1.295 0 0.71-0.1 1.47-0.1 2.26" fill="#ffcd49"/>
   <path d="m1132.7 536.72v-63.096c0-0.61-0.031-1.188-0.08-1.748v65.374c0.012-0.076 0.028-0.149 0.041-0.227l0.1-0.29-0.061-0.013z" fill="#ffcd49"/>
   <path d="m1157.7 541.23c0.131-7e-3 0.275-0.012 0.434-0.012 1.59 0 4.475 0.417 8.653 1.251-2.202-2.479-3.489-5.141-3.854-7.988v-26.987c0-2.754 1.192-4.497 3.58-5.232v-0.551c-1.837-0.458-4.868-2.156-9.088-5.095-3.306-2.293-5.28-3.718-5.922-4.269l-11.979 10.465v-31.945c0-7.987 3.808-12.806 11.43-14.458v-0.551c-0.064-2e-3 -0.127-4e-3 -0.191-4e-3 -2.256 0-6.485 1.517-12.685 4.548-6.197 3.032-11.029 4.548-14.497 4.548-0.104 0-0.205-1e-3 -0.305-3e-3 3.211 1.561 4.817 4.453 4.817 8.674v62.789c-0.368 2.754-1.882 4.775-4.543 6.059l17.763 9.639c2.479-2.754 4.359-4.772 5.646-6.06 3.4-2.96 6.9-4.56 10.8-4.84m1.4-38c-0.515 1.262-0.781 2.695-0.781 4.266v27.283l0.037 0.292c0.066 0.522 0.156 1.04 0.27 1.553-0.174-7e-3 -0.344-0.01-0.502-0.01-0.258 0-0.494 9e-3 -0.709 0.021-0.397 0.028-0.793 0.067-1.187 0.117 7e-3 -0.041 8e-3 -0.087 0.012-0.131-0.144-3e-3 -0.286-7e-3 -0.419-7e-3 -0.258 0-0.493 9e-3 -0.709 0.021-0.397 0.028-0.792 0.067-1.186 0.117 0.095-0.78 0.145-1.626 0.145-2.544v-27.676c0-2.92-2.02-5.214-5.463-7.561l0.819-0.714c0.803 0.569 1.803 1.271 3.06 2.145 0.471 0.326 0.915 0.629 1.347 0.92-0.808-0.794-1.778-1.569-2.924-2.351l0.819-0.714c0.804 0.569 1.804 1.271 3.061 2.145 1.8 1.16 3.2 2.09 4.4 2.83m-19.6 2.34l5.508-4.819c4.496 2.57 6.747 4.499 6.747 5.783v27.676c0 4.689-1.491 7.034-4.474 7.034-0.112 0-0.229-3e-3 -0.347-0.011-3.028-1.559-5.508-3.074-7.435-4.543v-31.124l1e-3 4e-3zm-10.6 35.84c0.724-1.312 1.198-2.779 1.413-4.387l0.04-0.303v-63.095c0-2.192-0.333-4.048-0.892-5.618 1.096-0.359 2.24-0.786 3.439-1.275-0.05 0.297-0.073 0.611-0.11 0.917 0.782-0.278 1.579-0.577 2.413-0.917-0.218 1.308-0.327 2.689-0.327 4.139v68.099l1.813 1.381c1.592 1.214 3.518 2.454 5.746 3.703-0.629 0.658-1.341 1.419-2.144 2.289l-1.529-0.83c-0.252 0.27-0.501 0.535-0.772 0.83l-9-4.92-0.09-0.013z" fill="#ffcd49"/>
   <path d="m1185.7 538.89l16-12.952-1.144-1.143c-4.824 3.301-7.618 4.952-8.381 4.952-0.847 0-3.641-1.734-8.382-5.206v-10.157l21.842-12.191c-4.655-7.62-8.426-13.842-11.3-18.667-5e-3 -3e-3 -0.01-5e-3 -0.019-5e-3 -0.171 0-1.394 0.932-3.665 2.798-2.71 2.031-4.403 3.26-5.08 3.683-2.768 1.539-5.642 2.308-8.62 2.308-0.3 0-0.601-6e-3 -0.903-0.023-2.031-0.083-3.81-0.549-5.333-1.397 1.102 1.61 1.778 2.667 2.032 3.176 0.676 1.27 1.015 2.666 1.015 4.189v20.952c-0.085 3.556-0.126 5.545-0.126 5.97 0 0.76-1.314 2.242-3.937 4.443 5.3 1.7 10.6 4.79 16 9.28m5.2-49.44c0.23 0.381 0.479 0.792 0.715 1.188 0.699-0.522 1.588-1.188 1.588-1.188 1.956 3.252 4.239 7.02 6.828 11.266l-1.641 0.916-0.789-1.123c0.045 0.07 0.083 0.136 0.127 0.207l-1.641 0.916-7.393-10.534c0.6-0.45 2.2-1.67 2.2-1.67m-7.1 3.98l2.923-1.396 9.268 13.205c-3.641 2.204-7.704 4.444-12.19 6.73v-18.539h-1e-3zm-8.4 2.9c0.705-0.023 1.408-0.082 2.107-0.177v30.402c0.134-0.457 0.201-0.911 0.201-1.375 0-0.418 0.041-2.375 0.126-5.874l1e-3 -21.048c0-0.654-0.044-1.298-0.134-1.927 0.705-0.023 1.409-0.082 2.108-0.177v30.432l1.647 1.208c2.813 2.061 4.806 3.416 6.275 4.305l-2.021 1.636c-0.406-0.305-0.813-0.586-1.219-0.876l-1.084 0.876c-2.985-2.246-5.975-4.11-8.946-5.579 0.662-1.036 0.943-1.981 0.943-2.975 0-0.418 0.042-2.375 0.125-5.874l1e-3 -21.048c0-0.66 0-1.3-0.1-1.93" fill="#ffcd49"/>
   <path d="m1215.5 488.76l-0.111 0.463v20.39c0 1.566 0.094 2.799 0.294 3.814 0.315-0.911 0.48-1.808 0.48-2.694v-22.169l-0.276-0.708c-0.037-0.094-0.07-0.171-0.105-0.262-0.1 0.36-0.2 0.74-0.3 1.17" fill="#ffcd49"/>
   <path d="m1277 505.24c-0.08 3.369-0.118 5.255-0.118 5.656 0 0.722-1.246 2.128-3.733 4.212 4.977 1.607 10.032 4.536 15.169 8.789l15.167-12.279-1.084-1.083c-4.574 3.13-7.222 4.695-7.944 4.695-0.804 0-3.452-1.644-7.945-4.936v-9.629l20.705-11.557c-4.413-7.223-7.987-13.121-10.715-17.695-2e-3 -4e-3 -8e-3 -6e-3 -0.015-6e-3 -0.162 2e-3 -1.321 0.886-3.476 2.655-2.568 1.925-4.174 3.089-4.814 3.491-2.624 1.459-5.347 2.189-8.172 2.189-0.283 0-0.569-7e-3 -0.855-0.023-1.928-0.079-3.612-0.521-5.057-1.324 1.043 1.525 1.686 2.528 1.926 3.009 0.642 1.205 0.962 2.53 0.962 3.974v19.862h-1e-3zm16-27.9c0.229 0.38 0.477 0.79 0.715 1.184 0.465-0.345 0.984-0.733 1.588-1.184 1.791 2.979 3.859 6.39 6.237 10.293l-1.198 0.67-5.163-7.353c1.244 2.056 2.587 4.265 4.061 6.683l-1.199 0.67-6.785-9.662c0.6-0.37 1.2-0.8 1.8-1.3m-6.5 3.46l2.768-1.323 8.789 12.519c-3.449 2.088-7.303 4.213-11.557 6.38v-17.58 4e-3zm-7.9 30.1c0-0.394 0.038-2.248 0.119-5.56l1e-3 -19.958c0-0.553-0.033-1.095-0.098-1.629 0.518-0.021 1.035-0.066 1.551-0.128v28.717l0.396 0.29c0.211-0.563 0.334-1.134 0.334-1.73 0-0.394 0.038-2.248 0.118-5.56l1e-3 -19.958c0-0.553-0.032-1.095-0.099-1.629 0.52-0.021 1.037-0.066 1.552-0.128v28.717l1.647 1.208c2.507 1.836 4.334 3.085 5.712 3.936l-1.56 1.261c-0.406-0.304-0.814-0.585-1.221-0.875l-1.082 0.875c-2.728-2.042-5.462-3.749-8.182-5.108 0.6-0.91 0.9-1.8 0.9-2.75" fill="#ffcd49"/>
   <path d="m1316.7 484.51c-1.174 0-2.68-0.459-4.519-1.38-1.505-0.919-2.302-1.422-2.385-1.506 1.337 1.675 2.258 3.515 2.761 5.523 0.082 0.584 0.209 1.38 0.377 2.384v9.664c0.252 1.257-0.168 2.554-1.255 3.892-0.672 0.501-1.214 0.922-1.632 1.254 3.514 2.344 6.402 4.477 8.66 6.402 2.091-3.345 5.146-5.021 9.163-5.021 2.763 0 4.519 1.676 5.271 5.021 0.253 1.087 0.378 3.808 0.378 8.158 0 3.096-1.592 4.979-4.769 5.649-3.684-2.929-7.826-5.021-12.427-6.277-5.858 5.859-9.12 9.54-9.792 11.045 0.169 0.17 0.252 0.337 0.252 0.503 2.259-2.009 3.515-3.012 3.766-3.012 4.686 0 9.078 2.007 13.18 6.024 4.268-6.106 9.58-9.162 15.94-9.162 1.839 0 4.142 0.419 6.903 1.254-1.506-3.179-2.259-5.229-2.259-6.149v-9.541c0.334-0.752 0.542-1.462 0.627-2.134 0.585-1.255 1.212-2.048 1.884-2.385-2.43-1.337-4.268-2.511-5.523-3.514-2.178-1.673-3.475-2.677-3.892-3.013-3.683 2.847-6.695 4.267-9.036 4.267-3.767 0-5.648-1.38-5.648-4.14v-10.669c0-2.176 1.43-3.263 4.293-3.263 1.092 0 4.079 1.882 8.962 5.646 5.05-5.271 7.953-8.826 8.71-10.669-0.502-0.25-0.796-0.417-0.879-0.501-0.169 0.084-0.689 0.564-1.567 1.443-0.88 0.879-1.402 1.318-1.568 1.318-0.839 0-2.599-1.004-5.273-3.013-2.261-1.671-3.724-2.802-4.392-3.388-0.589 2.259-2.492 4.373-5.712 6.338-3.4 1.97-6.3 2.95-8.8 2.95m-2.4 39.21c0.271-0.28 0.556-0.569 0.851-0.869 0.563 0.198 1.12 0.415 1.668 0.646 0.206-0.213 0.414-0.423 0.633-0.646 2.354 0.832 4.573 1.934 6.638 3.298-0.313 0.304-0.616 0.62-0.919 0.947-0.459-0.335-0.926-0.64-1.394-0.938-0.307 0.303-0.611 0.614-0.909 0.938-2.1-1.54-4.3-2.67-6.6-3.38m20.7-20.51c0.31 0.24 0.658 0.508 1.025 0.791 0.419-0.246 0.844-0.508 1.275-0.791 0.453 0.35 0.966 0.743 1.538 1.184 0.613 0.489 1.339 1.008 2.184 1.561l-7e-3 0.015-0.079 0.626c-0.023 0.189-0.098 0.518-0.314 1.004l-0.344 0.778v10.395c0 0.268 0.016 0.555 0.061 0.879-0.23-9e-3 -0.454-0.014-0.677-0.014-0.729 0-1.444 0.033-2.149 0.098 2e-3 -0.031 0-0.063 4e-3 -0.094-0.053 0-0.105-4e-3 -0.157-4e-3 -0.726 0-1.444 0.033-2.149 0.098 0.02-0.274 0.028-0.554 0.028-0.838 0-6.152-0.242-8.034-0.478-9.063-0.511-2.265-1.368-3.907-2.379-5.095 0.9-0.43 1.7-0.94 2.6-1.53m-16.8 1.95c-0.377-0.286-0.79-0.585-1.191-0.879-0.383 0.273-0.752 0.565-1.111 0.879-0.656-0.499-1.348-1.009-2.072-1.528 0.928-1.844 1.023-3.503 0.854-4.766v-9.676c-0.169 0-0.093-0.552-0.109-0.656 0.607-7e-3 1.221-0.054 1.843-0.138v9.917c0 0.984 0.165 1.986 0.513 2.935 0.157-0.887 0.149-1.694 0.056-2.382v-9.676c-0.093 0-0.093-0.552-0.109-0.656 0.607-7e-3 1.22-0.054 1.843-0.138v9.917c0 1.819 0.538 3.696 1.82 5.192-0.8 0.48-1.6 1.04-2.3 1.67m15.1-20.52c-1.663-1.21-2.985-2.093-4.076-2.731 0.239-0.237 0.47-0.474 0.687-0.716 0.272 0.204 0.563 0.421 0.877 0.653 1.183 0.887 2.201 1.596 3.1 2.151-0.2 0.22-0.4 0.43-0.6 0.65m2.3 0c-1.662-1.21-2.985-2.093-4.076-2.731 0.239-0.237 0.469-0.474 0.687-0.716 0.272 0.204 0.563 0.421 0.878 0.653 1.183 0.887 2.199 1.596 3.099 2.151-0.2 0.22-0.4 0.43-0.6 0.65" fill="#ffcd49"/>
   <path d="m1269.9 478.45h-10.797v-24.659c5.419 6.132 8.798 9.644 10.13 10.529 3.733-4.442 6.666-7.597 8.799-9.463-3.912-2.576-6.797-6.086-8.665-10.532l-17.06 9.466c-1.63 0.74-3.535 1.111-5.718 1.111-0.438 0-0.89-0.016-1.35-0.045 1.46 2.311 2.291 3.932 2.495 4.865 0.202 0.933 0.305 2.912 0.305 5.931 0 1.956-0.088 6.222-0.259 12.797-1.201-0.088-2.253-0.133-3.155-0.133-0.901 0-1.652 0.044-2.254 0.133-0.664 1.595-1.197 3.015-1.604 4.271-3.998-4.002-6.82-7.281-8.462-9.827-1.577 5.809-4.149 8.712-7.716 8.712-2.407 0-5.188-2.903-8.341-8.712-0.165 2.408-3.318 5.769-9.458 10.082 1.494 0.415 2.694 1.289 3.608 2.614 0.415 0.581 0.996 1.827 1.742 3.734v21.408c0 1.329-0.788 2.905-2.362 4.73-0.498 0.414-1.246 1.119-2.24 2.115 1.574 0.498 3.648 2.24 6.222 5.227 1.743 1.992 2.944 3.402 3.609 4.231 0.424 0 0.68 0.035 0.765 0.102 0.219-1.629 1.418-3.571 3.592-5.828 1.743-1.823 3.317-3.151 4.729-3.982-2.13-0.913-3.535-2.157-4.216-3.734-0.342-0.662-0.513-1.991-0.513-3.982v-19.914c0.499-2.073 0.788-3.153 0.871-3.236 0.499-1.162 1.41-1.743 2.739-1.743 1.491 0 3.005 1.142 4.542 3.423 1.533 2.283 2.677 3.964 3.423 5.041 1.059-4.151 3.523-7.538 7.376-10.173-0.082 0.259-0.167 0.523-0.238 0.767l7.6 0.14v98.081c1.066 0.085 1.731 0.132 2 0.132 0.086-0.978 0.086-2.575 0-7.099-0.18-8.96 0.221-8.397 1.198-12.124 1.688-6.476 5.42-10.202 11.198-11.178-2.224-1.597-3.333-5.678-3.333-12.243v-55.569h8.638l2.4-5.48-0.24 0.014zm-4.7-27.82c0.204 0.317 0.441 0.604 0.657 0.912l1.645-0.912c1.063 1.653 2.285 3.168 3.661 4.541-0.716 0.763-1.476 1.598-2.279 2.508-0.348-0.363-0.75-0.791-1.182-1.251-0.363 0.401-0.736 0.815-1.121 1.251-1.128-1.178-2.667-2.838-4.756-5.177l3.4-1.87-0.025-2e-3zm-47.4 38.13l-0.111 0.463v20.39c0 2.684 0.267 4.4 0.89 5.688 0.341 0.766 0.778 1.479 1.306 2.136-0.354 0.345-0.714 0.709-1.08 1.091-0.64 0.667-1.217 1.318-1.728 1.96-0.095-0.11-0.193-0.222-0.293-0.336-0.296-0.344-0.587-0.669-0.871-0.984-0.406 0.444-0.793 0.886-1.138 1.32-0.096-0.11-0.194-0.222-0.294-0.336-1.076-1.25-2.086-2.312-3.044-3.197 1.628-2.176 2.423-4.222 2.423-6.222v-22.169l-0.276-0.708c-1.153-2.946-1.79-4.007-2.215-4.605-0.065-0.095-0.132-0.189-0.202-0.282 1.063-0.878 1.99-1.719 2.792-2.531 0.341 0.442 0.678 0.846 1.018 1.229 0.46-0.417 0.888-0.827 1.283-1.229 1.076 1.398 2.142 2.501 3.218 3.325-0.159 0.245-0.303 0.501-0.436 0.772-0.5 0.78-0.7 1.89-1.3 4.23m14.9-3.62c-0.385-0.517-0.782-0.975-1.184-1.403-0.394 0.456-0.768 0.923-1.117 1.403-0.531-0.714-1.079-1.343-1.642-1.888 0.78-0.67 1.535-1.512 2.245-2.565 0.392 0.443 0.819 0.908 1.25 1.374 0.359-0.414 0.71-0.868 1.052-1.374 0.521 0.588 1.072 1.195 1.659 1.823-0.9 0.84-1.7 1.71-2.3 2.64m21.8 54.34c0 3.971 0.378 7.203 1.164 9.777-1.033 0.578-2.05 1.29-3.019 2.165v-1.712c-0.786 0.493-1.561 1.04-2.302 1.712v-72.033l-0.281-4e-3 0.021-0.82c0.175-6.736 0.261-10.961 0.261-12.917 0-4.45-0.22-6.028-0.409-6.908-1e-3 -6e-3 -4e-3 -0.014-5e-3 -0.021 0.686-0.208 1.347-0.454 1.98-0.742l0.168-0.077 0.12-0.067v81.646c0 2.471 0.147 4.657 0.447 6.578v-66.668l-0.282-4e-3 0.021-0.82c0.177-6.736 0.262-10.961 0.262-12.917 0-4.45-0.22-6.028-0.409-6.908-1e-3 -6e-3 -4e-3 -0.014-4e-3 -0.021 0.685-0.208 1.346-0.454 1.979-0.742l0.168-0.077 0.12-0.067v81.65-3e-3z" fill="#ffcd49"/>
   <path d="m1076.4 537.83v-19.648c-0.316 0.077-0.574 0.116-0.771 0.116-0.195 0-0.335-0.039-0.414-0.116-0.632 2.157-1.854 3.775-3.672 4.854h-4.737v-12.02c0-7.321 3.043-11.751 9.132-13.293-0.156-1.076-0.387-1.618-0.693-1.618-1.156 0-3.893 1.118-8.207 3.352-1.078 0.541-3.313 0.964-6.705 1.272-2.849 0.309-4.853 1.04-6.008 2.195 1.146 1.851 1.936 3.508 2.367 4.971 0.142 0.463 0.393 1.657 0.753 3.584v11.558h-7.05c-0.078 0.309-0.078 2.426 0 6.356h7.05v25.659c0 2.08-0.654 3.775-1.965 5.085l-2.658 2.66c2.466 1.078 4.623 2.698 6.474 4.854 1.462 1.695 2.543 3.005 3.235 3.93 4.237-5.058 7.242-8.237 9.014-9.541-3.698-1.992-5.278-4.406-4.738-7.242v-25.404h3.93c2.851 0.75 4.278 3.563 4.278 8.437h1.5l-0.115-1e-3zm-13 16.67c-0.288 1.947-0.088 4.968 2.762 7.825-1.028 1.059-2.196 2.337-3.522 3.856-0.219-0.255-0.445-0.522-0.683-0.797-0.151-0.176-0.32-0.327-0.475-0.496-0.37 0.413-0.747 0.838-1.146 1.293-0.217-0.255-0.445-0.522-0.683-0.797-1.073-1.25-2.251-2.359-3.519-3.314 1.642-1.885 2.509-4.299 2.509-7.028v-43.894l-0.06-0.315c-0.507-2.716-0.714-3.527-0.847-3.964-0.231-0.784-0.544-1.602-0.935-2.458 0.46-0.099 1.005-0.189 1.648-0.259 1.45-0.13 2.7-0.283 3.776-0.46-0.036 0.102-0.063 0.217-0.098 0.32 0.88-0.097 1.684-0.202 2.4-0.32-0.713 2.011-1.131 4.424-1.131 7.315v43.5l4e-3 -7e-3z" fill="#ffcd49"/>
   <path d="m1349.8 500.27h7.05v25.66c0 2.08-0.653 3.776-1.964 5.085l-2.658 2.657c2.465 1.082 4.622 2.701 6.472 4.856 1.463 1.695 2.542 3.003 3.237 3.93 4.234-5.059 7.242-8.238 9.016-9.542-3.699-1.991-5.281-4.405-4.74-7.242v-25.404h3.932c2.848 0.751 4.273 3.563 4.273 8.438h1.389v-19.648c-0.315 0.077-0.573 0.115-0.771 0.115-0.196 0-0.335-0.038-0.414-0.115-0.631 2.158-1.855 3.776-3.671 4.854h-4.737v-12.02c0-7.32 3.043-11.75 9.131-13.292-0.155-1.079-0.386-1.619-0.692-1.619-1.156 0-3.894 1.118-8.206 3.352-1.081 0.541-3.314 0.964-6.704 1.271-2.854 0.309-4.854 1.041-6.011 2.196 1.146 1.849 1.937 3.507 2.368 4.97 0.143 0.462 0.393 1.657 0.752 3.582v11.56h-7.05c-0.1 0.3-0.1 2.42 0 6.35m8.2-18.23l-0.06-0.313c-0.507-2.725-0.715-3.535-0.848-3.969-0.23-0.783-0.539-1.598-0.933-2.455 0.459-0.101 1.004-0.19 1.649-0.259 1.45-0.131 2.699-0.283 3.776-0.46-0.037 0.102-0.062 0.217-0.097 0.322 0.88-0.098 1.682-0.203 2.399-0.322-0.714 2.011-1.13 4.425-1.13 7.315v43.494c-0.29 1.946-0.091 4.969 2.761 7.824-1.029 1.059-2.198 2.338-3.523 3.855-0.219-0.254-0.447-0.52-0.686-0.796-0.15-0.175-0.317-0.326-0.473-0.497-0.368 0.414-0.748 0.839-1.145 1.293-0.218-0.254-0.445-0.52-0.685-0.796-1.073-1.252-2.248-2.36-3.519-3.314 1.643-1.884 2.51-4.297 2.51-7.027v-43.87l4e-3 -0.025z" fill="#ffcd49"/>
   <path d="m1063.4 511.01c0-2.891 0.418-5.302 1.131-7.315-0.717 0.118-1.521 0.224-2.4 0.32-0.646 1.95-1.032 4.25-1.032 6.995v43.494c-0.288 1.947-0.088 4.968 2.762 7.826-0.721 0.741-1.514 1.597-2.378 2.562 0.154 0.169 0.323 0.32 0.475 0.496 0.237 0.276 0.464 0.542 0.683 0.797 1.326-1.519 2.494-2.798 3.522-3.855-2.85-2.858-3.05-5.879-2.762-7.826v-43.5l-1e-3 6e-3z" fill="#f15822"/>
   <path d="m1360.4 481.9v43.494c-0.29 1.946-0.091 4.969 2.761 7.825-0.721 0.742-1.515 1.599-2.379 2.562 0.155 0.17 0.322 0.321 0.473 0.496 0.238 0.277 0.467 0.542 0.686 0.796 1.325-1.517 2.494-2.796 3.523-3.854-2.852-2.856-3.051-5.878-2.761-7.825v-43.494c0-2.892 0.416-5.304 1.13-7.315-0.718 0.119-1.52 0.226-2.399 0.322-0.6 1.93-1 4.23-1 6.98" fill="#f15822"/>
   <path d="m1358 525.93c0 2.73-0.867 5.143-2.51 7.027 1.271 0.955 2.445 2.062 3.519 3.314 0.239 0.276 0.467 0.542 0.685 0.796 0.396-0.454 0.776-0.879 1.145-1.293 0.864-0.963 1.658-1.82 2.379-2.562-2.852-2.855-3.051-5.878-2.761-7.824v-43.494c0-2.745 0.385-5.045 1.033-6.994 0.035-0.104 0.06-0.22 0.097-0.322-1.077 0.178-2.326 0.33-3.776 0.46-0.646 0.069-1.19 0.158-1.649 0.259 0.394 0.857 0.702 1.672 0.933 2.455 0.133 0.434 0.341 1.244 0.848 3.969l0.06 0.313v43.87l-3e-3 0.026z" fill="#ebebd2"/>
   <path d="m1034.8 578.72c0.355-0.383 0.755-0.81 1.176-1.257-1.008-1.062-2.108-2.048-3.307-2.954 0.914-2.074 1.497-4.875 1.497-8.65v-3.908l-0.019-0.208c-0.085-0.936-0.128-1.891-0.128-2.836 0-0.446-0.043-0.885-0.106-1.32-0.755-0.138-1.538-0.304-2.384-0.54 0.125 0.612 0.187 1.231 0.187 1.86 0 0.946 0.044 1.901 0.13 2.836l0.02 0.208v3.908c0 3.775-0.583 6.577-1.497 8.65 1.7 1.25 3.1 2.65 4.4 4.21" fill="#ebebd2"/>
   <path d="m1006.6 574.36c1.936-2.799 2.774-4.921 2.774-6.848v-65.287c0-4.765-0.199-6.244-0.41-7.132-0.084-0.359-0.182-0.71-0.293-1.057 0.758-0.288 1.596-0.62 2.514-1.001 0.105-0.376 0.201-0.756 0.333-1.123-2.025 0.888-3.72 1.583-5.148 2.124 0.11 0.346 0.209 0.697 0.291 1.057 0.213 0.888 0.411 2.367 0.411 7.132v65.287c0 1.927-0.837 4.048-2.774 6.848 1.229 0.944 2.184 1.868 2.916 2.807 0.202 0.261 0.406 0.539 0.615 0.838 0.399-0.434 0.841-0.868 1.301-1.296-0.7-0.79-1.5-1.56-2.5-2.35" fill="#ebebd2"/>
   <path d="m1029.7 529.82l0.937-0.581c-0.291-0.312-0.571-0.613-0.841-0.906l-2.397 1.487 8.656 9.004c0.563-0.272 1.078-0.526 1.561-0.771l-8-8.23 0.084-3e-3z" fill="#ebebd2"/>
   <path d="m1093.6 558.79c-2.243-1.343-4.608-2.726-7.099-4.143 1.176-2.148 1.77-4.603 1.77-7.322-0.088-10.573-0.088-17.946-2e-3 -21.951l9e-3 -0.302-0.039-0.299c-0.147-1.128-0.392-2.292-0.737-3.497 0.078 0 0.155 1e-3 0.231 1e-3 0.254 0 0.507-0.027 0.761-0.039 0.013-0.093 0.016-0.188 0.03-0.276-1.041 0.208-2.073 0.315-3.094 0.315-0.077 0-0.152-1e-3 -0.232-1e-3 0.349 1.205 0.593 2.369 0.737 3.497l0.04 0.299-7e-3 0.302c-0.086 4.005-0.086 11.378 1e-3 21.951 0 2.72-0.593 5.174-1.769 7.322 3.011 1.713 5.852 3.379 8.497 4.986 0.3-0.29 0.6-0.57 0.9-0.85" fill="#ebebd2"/>
   <path d="m1106.4 518.53c0.781 2.06 1.146 4.98 1.146 9.189v22.754c0 0.316-0.023 0.637-0.072 0.96 0.773-0.127 1.549-0.188 2.318-0.198 0.029-0.255 0.057-0.511 0.057-0.762v-22.754c0-4.209-0.364-7.13-1.148-9.189-0.399-1.118-0.952-2.089-1.616-2.912-2.075-1.054-3.809-1.922-5.192-2.605l-0.242 0.223c2.1 0.9 3.8 2.73 4.7 5.29" fill="#ebebd2"/>
   <path d="m1138 546.34c0.271-0.295 0.521-0.561 0.772-0.831l-7.562-4.102c0.69-1.248 1.145-2.644 1.374-4.159v-65.374c-0.128-1.45-0.408-2.737-0.811-3.871 0.335-0.109 0.683-0.237 1.026-0.358 0.037-0.305 0.06-0.619 0.11-0.917-1.199 0.49-2.342 0.916-3.437 1.275 0.555 1.571 0.889 3.427 0.889 5.619v63.095l-0.04 0.303c-0.215 1.607-0.689 3.075-1.413 4.387l9 4.93 0.092 3e-3z" fill="#ebebd2"/>
   <path d="m1156.1 535.07l-0.037-0.292v-27.283c0-0.79 0.068-1.543 0.2-2.26-0.311-1.412-1.133-2.687-2.383-3.914-0.432-0.292-0.876-0.595-1.347-0.922-1.257-0.872-2.257-1.575-3.06-2.144l-0.819 0.715c3.443 2.346 5.463 4.641 5.463 7.559v27.678c0 0.918-0.05 1.764-0.145 2.544 0.394-0.051 0.788-0.089 1.186-0.117 0.216-0.013 0.451-0.021 0.709-0.021 0.133 0 0.275 3e-3 0.419 7e-3 0.013-0.1 0.019-0.211 0.028-0.315-0.2-0.42-0.3-0.84-0.3-1.25" fill="#ebebd2"/>
   <path d="m1175.5 519.3c-0.083 3.499-0.125 5.456-0.125 5.874 0 0.994-0.281 1.939-0.943 2.975 2.972 1.469 5.961 3.333 8.946 5.579l1.084-0.876c-2.579-1.851-5.162-3.433-7.729-4.703 0.354-0.553 0.593-1.079 0.743-1.6v-30.39c-0.699 0.095-1.402 0.154-2.107 0.177 0.089 0.629 0.133 1.273 0.133 1.927v21.04l-2e-3 -3e-3z" fill="#ebebd2"/>
   <path d="m1196.1 501.63l1.641-0.916c-0.044-0.072-0.082-0.138-0.127-0.208l-6.605-9.412c0.151-0.111 0.375-0.276 0.619-0.459-0.236-0.396-0.484-0.807-0.715-1.188 0 0-1.621 1.216-2.207 1.647l7.4 10.54-6e-3 -4e-3z" fill="#ebebd2"/>
   <path d="m1213.7 516.95c0.907-1.212 1.547-2.383 1.942-3.527-0.2-1.017-0.294-2.248-0.294-3.815v-20.389l0.111-0.464c0.104-0.431 0.195-0.811 0.281-1.165-1.085-2.735-1.697-3.765-2.109-4.343-0.064-0.095-0.132-0.189-0.202-0.282 0.538-0.443 1.039-0.878 1.508-1.303-0.34-0.383-0.677-0.785-1.018-1.228-0.802 0.813-1.729 1.653-2.792 2.531 0.07 0.092 0.137 0.187 0.202 0.282 0.425 0.597 1.062 1.659 2.215 4.605l0.276 0.708v22.168c0 2.001-0.795 4.047-2.423 6.222 0.958 0.886 1.968 1.948 3.044 3.199 0.1 0.113 0.198 0.225 0.294 0.335 0.345-0.434 0.731-0.876 1.138-1.32-0.6-0.83-1.4-1.56-2.1-2.21" fill="#ebebd2"/>
   <path d="m1232.2 482.06c-0.43-0.465-0.857-0.93-1.249-1.374-0.71 1.054-1.465 1.896-2.245 2.566 0.563 0.544 1.11 1.174 1.642 1.889 0.35-0.481 0.724-0.948 1.117-1.405-0.152-0.162-0.302-0.333-0.456-0.484 0.4-0.36 0.8-0.76 1.2-1.2" fill="#ebebd2"/>
   <path d="m1287 517.86c-2.321-1.652-4.646-3.078-6.962-4.235 0.199-0.334 0.35-0.667 0.477-1.004l-0.396-0.291v-28.717c-0.516 0.063-1.033 0.108-1.551 0.13 0.064 0.533 0.098 1.075 0.098 1.628l-1e-3 19.959c-0.081 3.313-0.119 5.167-0.119 5.561 0 0.95-0.278 1.841-0.81 2.735 2.72 1.361 5.454 3.067 8.182 5.109l1.1-0.87-0.018-5e-3z" fill="#ebebd2"/>
   <path d="m1299.3 487.63c-1.474-2.419-2.816-4.628-4.061-6.684l-1.621-2.309c0.049-0.037 0.106-0.081 0.157-0.117-0.239-0.395-0.486-0.804-0.715-1.185-0.667 0.5-1.243 0.93-1.745 1.302l6.785 9.662 1.1-0.67 0.1 1e-3z" fill="#ebebd2"/>
   <path d="m1321.8 526.16c-1.677-1.062-3.403-1.88-5.173-2.439 0.066-0.07 0.145-0.149 0.215-0.222-0.548-0.231-1.105-0.448-1.668-0.647-0.295 0.3-0.579 0.589-0.85 0.869 2.265 0.716 4.458 1.842 6.566 3.376 0.4-0.33 0.7-0.64 1-0.94" fill="#ebebd2"/>
   <path d="m1316.9 501.25c-0.349-0.95-0.514-1.95-0.514-2.935v-9.92c-0.622 0.084-1.235 0.131-1.843 0.138 0.017 0.104 0.109 0.656 0.109 0.656v9.676c0.172 1.262 0.076 2.922-0.854 4.766 0.725 0.519 1.416 1.03 2.072 1.528 0.359-0.314 0.729-0.606 1.111-0.879-0.296-0.217-0.573-0.429-0.881-0.649 0.5-0.85 0.7-1.65 0.8-2.4" fill="#ebebd2"/>
   <path d="m1329.9 481.2c-0.217 0.242-0.445 0.48-0.687 0.717 1.091 0.638 2.412 1.52 4.076 2.73 0.203-0.222 0.398-0.437 0.587-0.645-0.898-0.554-1.917-1.264-3.1-2.15-0.4-0.23-0.7-0.45-0.9-0.65" fill="#ebebd2"/>
   <path d="m1335.3 518.9c0 0.285-9e-3 0.564-0.028 0.838 0.705-0.064 1.424-0.097 2.149-0.097 0.052 0 0.104 4e-3 0.157 4e-3 0.014-0.246 0.024-0.492 0.024-0.745 0-6.152-0.242-8.034-0.479-9.063-0.512-2.265-1.366-3.907-2.377-5.096 0.439-0.223 0.887-0.471 1.341-0.738-0.367-0.282-0.716-0.551-1.025-0.791-0.902 0.589-1.774 1.1-2.618 1.528 1.011 1.188 1.868 2.831 2.379 5.096 0.2 1.03 0.5 2.91 0.5 9.06" fill="#ebebd2"/>
   <path d="m1252.2 539.48v-81.646l-0.12 0.067-0.168 0.077c-0.634 0.288-1.295 0.534-1.98 0.742 1e-3 7e-3 4e-3 0.016 5e-3 0.021 0.189 0.88 0.409 2.458 0.409 6.908 0 1.956-0.086 6.181-0.261 12.917l-0.021 0.82 0.281 4e-3v72.033c0.741-0.672 1.516-1.219 2.302-1.712v-3.653c-0.3-1.92-0.4-4.1-0.4-6.58" fill="#ebebd2"/>
   <path d="m1267.7 456.43c-0.964-1.034-2.13-2.309-3.576-3.926l1.731-0.96c-0.216-0.307-0.453-0.595-0.658-0.912l-3.374 1.872c2.089 2.339 3.628 3.999 4.756 5.177 0.4-0.44 0.8-0.85 1.2-1.25" fill="#ebebd2"/>
   <path d="m1061.1 554.5v-43.493c0-2.747 0.386-5.044 1.031-6.995 0.035-0.103 0.062-0.218 0.098-0.32-1.075 0.177-2.326 0.33-3.776 0.46-0.644 0.07-1.188 0.16-1.647 0.259 0.391 0.856 0.702 1.674 0.934 2.458 0.134 0.437 0.34 1.248 0.847 3.964l0.06 0.315v43.894c0 2.729-0.865 5.143-2.511 7.028 1.27 0.955 2.447 2.063 3.52 3.314 0.238 0.275 0.467 0.542 0.684 0.797 0.396-0.455 0.776-0.88 1.146-1.293 0.864-0.965 1.657-1.821 2.378-2.563-2.8-2.87-3-5.89-2.7-7.84" fill="#ebebd2"/>
   <path d="m950.04 645.99c21.939-17.621 36.41-28.438 43.405-32.458 1.919-1.081 4.249-2.319 6.994-3.709 2.742-1.393 4.595-2.628 5.554-3.71-5.484-1.698-8.228-8.887-8.228-21.562v-72.104c0-3.71-4.423-9.39-13.269-17.042-8.846-7.65-14.503-11.475-16.971-11.475-0.551 0-3.499 2.009-8.848 6.028-12.893 9.737-25.509 16.309-37.852 19.706-6.858 1.855-10.973 3.17-12.342 3.942 0.357-0.031 0.702-0.045 1.038-0.045 4.792 0 7.189 3.109 7.189 9.318v31.021c-0.12-0.12-1.217-0.184-3.292-0.184-2.469 0-4.87 1.315-7.2 3.94-2.332 2.631-3.635 5.414-3.908 8.347 1.067 0 2.732-0.151 5.003-0.462 6.264 0 9.397 3.246 9.397 9.736v25.041c0 8.659-6.446 18.472-19.337 29.445 20.29 2.74 37.85 8.15 52.66 16.19m-22.2-130.86c-0.06 0.282-0.105 0.566-0.154 0.85 0.819-0.274 1.637-0.552 2.456-0.85-0.203 0.983-0.356 1.972-0.46 2.965l-0.045 0.417v75.943l-4.867 4.471v-2.114l-2.304 2.114v-23.654c0-0.658-0.023-1.302-0.07-1.932l0.07 0.073v-50.539c0-2.153-0.222-4.074-0.629-5.78 1.99-0.58 4-1.24 6-1.97m30.02 43.22l19.75-12.057v14.144l-19.75 12.984v-15.071zm19.74-16l-19.75 12.288v-51.471c13.167 9.429 19.75 16.309 19.75 20.634v18.55-1e-3zm-62.81 78.43l2.03 0.357c0.089-0.119 0.187-0.238 0.273-0.357l2.532 0.448c13.184 2.332 23.68 5.375 31.196 9.044l3.72 1.815c-1.762 1.394-3.583 2.841-5.465 4.342-0.476-0.233-0.969-0.451-1.451-0.678-0.283 0.228-0.562 0.447-0.852 0.678-10.454-5.107-22.152-9.085-34.951-11.888 1.07-1.25 2.06-2.5 2.96-3.75m51.71 5.73l-8.642-2.783v-46.371l19.75-13.214v45.443c-0.01 7.41-3.71 13.06-11.11 16.92m23.21-41.96c0 3.895 0 12.811 3.495 19.943-1.344 0.71-2.583 1.383-3.707 2.017-1.12 0.643-2.396 1.432-3.835 2.368v-1.454c-0.719 0.442-1.475 0.916-2.302 1.454v-85.073c0-7.498-6.601-15.314-22.768-26.937 0.213-0.16 0.427-0.32 0.641-0.482 2.133-1.603 3.654-2.71 4.729-3.472 0.339 0.216 0.746 0.49 1.19 0.798 0.409-0.296 0.788-0.568 1.112-0.798 1.859 1.186 5.229 3.625 10.963 8.583 8.427 7.291 10.171 10.618 10.481 11.362v71.69l1e-3 1e-3zm-38.81-83.47c1.896 0 3.047 0.155 3.455 0.464v121.5c-8.229-4.017-19.337-7.263-33.327-9.736l16.664-15.302v-79.062c0.405-3.861 1.829-7.651 4.268-11.36 2.85-4.33 5.82-6.5 8.94-6.5" fill="#ffcd49"/>
   <path d="m947.63 635.75c-10.085-4.777-21.284-8.534-33.503-11.21 0.97-1.142 1.862-2.276 2.697-3.402l-2.029-0.358c-0.909 1.245-1.897 2.498-2.968 3.761 12.799 2.803 24.497 6.781 34.951 11.888 0.29-0.23 0.56-0.45 0.85-0.68" fill="#ebebd2"/>
   <path d="m922.47 573.41l-0.07-0.073c0.047 0.63 0.07 1.274 0.07 1.934v23.652l2.304-2.114v-21.539c0-0.659-0.024-1.304-0.073-1.934l0.073 0.073v-50.538c0-2.153-0.225-4.075-0.631-5.78 1.18-0.342 2.364-0.72 3.547-1.115 0.05-0.284 0.097-0.567 0.154-0.85-2.007 0.731-4.01 1.387-6.001 1.965 0.405 1.706 0.627 3.627 0.627 5.78v50.539z" fill="#ebebd2"/>
   <path d="m985.66 523.8c0-7.498-6.602-15.313-22.769-26.938 0.214-0.16 0.428-0.321 0.642-0.482 1.49-1.121 2.667-1.986 3.617-2.674-0.445-0.308-0.853-0.583-1.191-0.798-1.077 0.762-2.596 1.87-4.729 3.472-0.214 0.162-0.429 0.323-0.641 0.482 16.167 11.624 22.768 19.44 22.768 26.938v85.074c0.827-0.539 1.584-1.014 2.303-1.457v-83.617z" fill="#ebebd2"/>
   <path d="m1012.4 554.87v-22.275c-0.066-0.532-0.127-1.271 0-2.075v-29.602l0.038-0.292c0.385-2.978 0.623-5.089 0.716-6.278l0.027-0.357 0.083-0.35c0.142-0.589 0.312-1.166 0.513-1.729-0.95 0.417-1.824 0.788-2.635 1.124-0.916 0.38-1.756 0.713-2.514 1 0.111 0.347 0.209 0.698 0.293 1.057 0.211 0.887 0.41 2.367 0.41 7.132v65.287c0 1.927-0.839 4.048-2.774 6.848 1.027 0.789 1.854 1.566 2.529 2.349 0.132 0.153 0.268 0.305 0.385 0.458 0.204 0.261 0.408 0.539 0.617 0.838 1.082-1.179 2.393-2.342 3.934-3.491-0.737-1.517-1.309-3.433-1.592-5.848-0.3-3.77-0.3-8.41 0.1-13.8" fill="#f15822"/>
   <path d="m1041.1 537.45c-3.776-3.66-6.757-6.682-8.994-9.114l-1.461 0.906-0.937 0.581 7.915 8.232 0.741 0.772c1.1-0.51 2-0.97 2.8-1.38" fill="#f15822"/>
   <path d="m1034.2 561.74l0.019 0.208v3.908c0 3.775-0.583 6.577-1.497 8.65 1.198 0.906 2.297 1.893 3.307 2.954 0.388 0.408 0.766 0.826 1.127 1.257 0.563-0.606 1.201-1.288 1.931-2.061 0.11-0.123 0.218-0.241 0.323-0.355-0.303-0.365-0.551-0.746-0.754-1.152l-0.08-0.162-0.067-0.168c-0.56-1.396-0.95-3.204-1.193-5.527l-0.01-0.122c-0.116-1.48-0.118-3.228-5e-3 -5.242 0.091-1.402 0.138-2.545 0.138-3.399 0-1.088 0-1.989 0.025-2.753-1.09-0.129-2.277-0.373-3.578-0.734 0.037 0.177 0.057 0.359 0.082 0.538 0.062 0.437 0.105 0.876 0.105 1.322 0.3 0.94 0.3 1.89 0.4 2.83" fill="#f15822"/>
   <path d="m1087.5 521.28c0.346 1.206 0.59 2.369 0.737 3.497l0.039 0.3-9e-3 0.301c-0.086 4.005-0.086 11.378 2e-3 21.951 0 2.722-0.594 5.174-1.77 7.322 2.49 1.417 4.855 2.799 7.099 4.142 0.47 0.284 0.94 0.566 1.398 0.844 0.364-0.358 0.739-0.708 1.123-1.049-1.341-0.917-2.664-2.336-3.739-4.51-1.415-2.858-1.987-5.876-1.697-8.972v-22.16c0-0.687 0.048-1.345 0.141-1.974-0.782 0.157-1.56 0.237-2.333 0.276-0.253 0.013-0.506 0.039-0.76 0.039 0-0.01-0.1-0.01-0.1-0.01" fill="#f15822"/>
   <path d="m1108.7 518.53c0.784 2.06 1.148 4.98 1.148 9.189v22.754c0 0.251-0.026 0.507-0.06 0.762-7e-3 0.067-4e-3 0.131-0.014 0.198 0.841-0.136 1.679-0.205 2.51-0.205 0.059 0 0.122 0 0.192 2e-3 -0.144-0.973-0.215-2.05-0.215-3.235v-23.853c0-2.047 0.649-4.051 1.969-6.05-4.366-2.239-7.689-3.922-10.035-5.08l-0.246 0.223c1.22 0.506 2.275 1.319 3.135 2.382 0.6 0.84 1.2 1.82 1.6 2.93" fill="#f15822"/>
   <path d="m1151.7 498.26l-0.819 0.715c1.146 0.78 2.116 1.555 2.924 2.35 1.25 1.227 2.072 2.503 2.383 3.915 0.092 0.419 0.155 0.848 0.155 1.295v27.678c0 0.749-0.041 1.44-0.104 2.097-0.01 0.104-0.016 0.215-0.028 0.315-4e-3 0.043-5e-3 0.09-0.012 0.131 0.394-0.051 0.789-0.089 1.187-0.117 0.215-0.013 0.451-0.021 0.709-0.021 0.158 0 0.328 3e-3 0.502 8e-3 -0.113-0.512-0.203-1.03-0.27-1.553l-0.037-0.292v-27.283c0-1.57 0.267-3.003 0.781-4.266-1.218-0.74-2.641-1.667-4.311-2.828-1.4-0.89-2.4-1.6-3.2-2.16" fill="#f15822"/>
   <path d="m1132.6 471.87c0.049 0.561 0.08 1.139 0.08 1.748v63.096l-0.039 0.303c-0.012 0.078-0.029 0.151-0.041 0.229-0.229 1.514-0.684 2.911-1.374 4.158l7.562 4.103 1.529 0.83c0.803-0.87 1.515-1.631 2.144-2.289-2.229-1.249-4.154-2.49-5.746-3.702l-1.812-1.382v-68.099c0-1.45 0.108-2.831 0.326-4.139-0.834 0.34-1.633 0.639-2.414 0.916-0.343 0.122-0.691 0.25-1.025 0.36 0.3 1.13 0.6 2.41 0.7 3.86" fill="#f15822"/>
   <path d="m1197.6 500.51l0.789 1.123 1.641-0.916c-2.589-4.247-4.872-8.014-6.828-11.266 0 0-0.889 0.665-1.588 1.187-0.244 0.184-0.468 0.348-0.619 0.46l6.6 9.42 5e-3 -8e-3z" fill="#f15822"/>
   <path d="m1184.5 532.86c0.408 0.292 0.813 0.571 1.219 0.876l2.022-1.635c-1.472-0.89-3.464-2.246-6.277-4.307l-1.647-1.206v-30.43c-0.699 0.094-1.402 0.153-2.108 0.177 0.09 0.629 0.134 1.273 0.134 1.929l-1e-3 21.047c-0.085 3.499-0.126 5.457-0.126 5.874 0 0.464-0.067 0.918-0.201 1.375-0.15 0.522-0.39 1.047-0.743 1.601 2.5 1.26 5.1 2.84 7.7 4.7" fill="#f15822"/>
   <path d="m1233.3 480.68c-0.342 0.506-0.692 0.96-1.053 1.374-0.389 0.447-0.787 0.844-1.191 1.191 0.154 0.151 0.304 0.322 0.456 0.484 0.401 0.429 0.799 0.887 1.184 1.404 0.673-0.925 1.427-1.802 2.264-2.631-0.6-0.61-1.2-1.22-1.7-1.81" fill="#f15822"/>
   <path d="m1219.5 483.76c-1.076-0.823-2.142-1.925-3.218-3.324-0.396 0.401-0.823 0.811-1.283 1.229-0.469 0.424-0.97 0.859-1.508 1.302 0.07 0.093 0.138 0.187 0.202 0.282 0.412 0.579 1.024 1.608 2.109 4.343 0.035 0.09 0.067 0.168 0.105 0.263l0.276 0.707v22.169c0 0.886-0.165 1.783-0.48 2.695-0.396 1.145-1.036 2.315-1.942 3.527 0.696 0.642 1.417 1.38 2.174 2.213 0.284 0.315 0.575 0.64 0.871 0.983 0.1 0.114 0.198 0.227 0.293 0.336 0.511-0.642 1.088-1.293 1.728-1.96 0.366-0.382 0.726-0.747 1.079-1.092-0.526-0.657-0.964-1.37-1.305-2.136-0.623-1.287-0.89-3.005-0.89-5.688v-20.39l0.111-0.463c0.559-2.333 0.827-3.452 1.241-4.225 0.1-0.26 0.2-0.51 0.4-0.76" fill="#f15822"/>
   <path d="m1287 517.86c0.406 0.29 0.814 0.57 1.221 0.874l1.56-1.261c-1.378-0.85-3.205-2.099-5.712-3.937l-1.647-1.207v-28.717c-0.515 0.063-1.032 0.108-1.552 0.13 0.066 0.533 0.099 1.075 0.099 1.628l-2e-3 19.959c-0.08 3.313-0.117 5.167-0.117 5.561 0 0.596-0.123 1.167-0.334 1.73-0.127 0.337-0.277 0.67-0.477 1.004 2.3 1.18 4.6 2.6 6.9 4.25" fill="#f15822"/>
   <path d="m1295.2 480.95l5.163 7.354 1.198-0.67c-2.378-3.904-4.446-7.314-6.237-10.294-0.604 0.451-1.123 0.84-1.588 1.185-0.051 0.037-0.108 0.079-0.157 0.117l1.6 2.31 0.021-2e-3z" fill="#f15822"/>
   <path d="m1332.2 481.2c-0.218 0.242-0.447 0.48-0.687 0.717 1.091 0.638 2.413 1.52 4.076 2.73 0.203-0.222 0.397-0.437 0.587-0.645-0.899-0.554-1.916-1.264-3.099-2.15-0.4-0.23-0.7-0.45-0.9-0.65" fill="#f15822"/>
   <path d="m1318.7 488.4c-0.622 0.084-1.235 0.132-1.843 0.137 0.018 0.106 0.109 0.657 0.109 0.657v9.676c0.094 0.687 0.104 1.495-0.055 2.381-0.13 0.744-0.375 1.543-0.798 2.383 0.308 0.222 0.585 0.434 0.881 0.65 0.401 0.294 0.814 0.592 1.191 0.879 0.725-0.638 1.504-1.189 2.334-1.654-1.281-1.495-1.82-3.373-1.82-5.194v-9.93l1e-3 0.015z" fill="#f15822"/>
   <path d="m1337.1 509.84c0.237 1.029 0.479 2.911 0.479 9.063 0 0.252-0.011 0.5-0.024 0.745-4e-3 0.031-2e-3 0.063-4e-3 0.093 0.705-0.064 1.421-0.098 2.149-0.098 0.223 0 0.446 6e-3 0.677 0.015-0.045-0.325-0.061-0.612-0.061-0.879v-10.395l0.344-0.777c0.217-0.487 0.291-0.815 0.314-1.005l0.079-0.625 7e-3 -0.016c-0.845-0.552-1.57-1.071-2.184-1.561-0.572-0.44-1.085-0.833-1.538-1.183-0.432 0.281-0.856 0.545-1.275 0.79-0.454 0.266-0.901 0.515-1.341 0.738 1 1.2 1.9 2.84 2.4 5.11" fill="#f15822"/>
   <path d="m1321.8 526.16c0.468 0.296 0.935 0.601 1.394 0.937 0.303-0.327 0.606-0.643 0.919-0.947-2.064-1.364-4.283-2.466-6.638-3.298-0.219 0.223-0.427 0.434-0.633 0.647-0.07 0.073-0.148 0.151-0.215 0.222 1.7 0.56 3.4 1.37 5.1 2.44" fill="#f15822"/>
   <path d="m1254.5 457.84l-0.12 0.067-0.168 0.077c-0.634 0.288-1.295 0.535-1.979 0.742 0 7e-3 3e-3 0.016 4e-3 0.022 0.189 0.878 0.409 2.457 0.409 6.907 0 1.956-0.085 6.18-0.262 12.917l-0.021 0.821 0.282 4e-3v72.032c0.969-0.875 1.985-1.588 3.019-2.165-0.786-2.574-1.164-5.807-1.164-9.777v-81.647z" fill="#f15822"/>
   <path d="m1267.7 456.43c0.432 0.46 0.834 0.888 1.182 1.251 0.804-0.91 1.563-1.744 2.279-2.508-1.376-1.373-2.598-2.888-3.661-4.541l-1.645 0.912-1.731 0.96c1.4 1.62 2.5 2.9 3.5 3.93" fill="#f15822"/>
   <path d="m979.23 501.49c-5.734-4.959-9.104-7.397-10.963-8.584-0.324 0.229-0.702 0.501-1.111 0.798-0.949 0.688-2.127 1.554-3.618 2.674-0.214 0.162-0.427 0.321-0.641 0.481 16.166 11.624 22.769 19.439 22.769 26.938v85.074c1.438-0.938 2.714-1.726 3.834-2.37 1.123-0.633 2.363-1.306 3.705-2.017-3.493-7.131-3.493-16.048-3.493-19.942v-71.691c-0.31-0.75-2.06-4.08-10.48-11.37" fill="#f15822"/>
   <path d="m924.77 522.87v50.538l-0.073-0.073c0.049 0.63 0.073 1.274 0.073 1.934v23.653l4.867-4.47v-75.944l0.045-0.417c0.104-0.993 0.256-1.981 0.461-2.964-0.82 0.298-1.638 0.576-2.457 0.85-1.185 0.395-2.367 0.772-3.547 1.115 0.42 1.7 0.64 3.62 0.64 5.77" fill="#f15822"/>
   <path d="m947.63 635.75c0.482 0.228 0.976 0.445 1.452 0.678 1.881-1.501 3.703-2.949 5.464-4.342l-3.721-1.815c-7.516-3.67-18.011-6.713-31.194-9.044l-2.533-0.447c-0.087 0.119-0.185 0.238-0.273 0.358-0.835 1.126-1.728 2.261-2.697 3.402 12.21 2.67 23.41 6.43 33.5 11.2" fill="#f15822"/>
   <path d="m1287.2 615.01c-0.74 2.617 3.439 3.954 4.218 1.195 0.7-2.32-3.5-3.81-4.2-1.19m-5.6-10.41c-2.604 0.432-1.805 4.378 0.659 3.968 2.5-0.41 1.5-4.34-0.7-3.97m10 13.9c-0.594 2.094 2.752 3.17 3.376 0.958 0.5-1.86-2.8-3.05-3.4-0.96m-11.4-18.72c-2.077 0.349-1.439 3.5 0.531 3.17 2-0.32 1.3-3.46-0.5-3.17m16.1 20.58c-0.473 1.678 2.204 2.53 2.703 0.768 0.4-1.49-2.2-2.45-2.7-0.77m-11.4-11.29c-3.244 0.541-2.249 5.468 0.827 4.957 3.1-0.52 1.9-5.42-0.8-4.96m38.1 28.44c0.497 3.086 5.184 2.174 4.712-0.751-0.4-2.93-5.1-1.85-4.7 0.75m24.5-16.39c-3.445-1.003-5.693 5.113-1.813 6.247 3.8 1.13 5.9-5.06 1.8-6.25m-17.3 14.38c0.613 3.863 6.472 2.718 5.89-0.938-0.6-3.66-6.5-2.31-5.9 0.94m6.6-4.78c0.765 4.821 8.088 3.394 7.357-1.178-0.7-4.57-8-2.89-7.4 1.18m18.1-20.83c-2.204-0.64-3.647 3.28-1.161 3.998 2.5 0.73 3.8-3.24 1.2-4m-4 10.98c3.106 0.897 4.739-4.053 1.456-4.999-2.8-0.8-4.6 4.1-1.5 5m-11.6-12.22s-8.269-0.158-9.932-1.408l-4.626 3.378 5.446 2.936s1.9-2.3 9.1-4.91m-64.5-8.91c-2.504 2.957-6.738 4.453-10.188 1.529-3.457-2.924-3.931-5.862-1.217-9.068 2.717-3.209 5.448-0.058 7.195 1.006 0.842-1.453-3.471-7.042-8.261-2.754-3.849 3.451-2.144 10.037 0.819 12.543 2.959 2.506 9.689 3.505 13.026-0.44 3.344-3.949 4.665-7.037 4.665-7.037s0.493 5.011 8.982 12.49 7.701 6.553 15.713 4.871c0 0 7.76-2.579 12.146-7.76 4.388-5.181 7.571-13.012-0.82-20.11-8.386-7.103-16.235-1.179-18.436 1.18-3.534 3.79-4.285 12.236 3.195 15.296 7.568 3.099 9.801-5.481 9.801-5.481-2.279 3.459-6.931 3.418-9.527 2.49-2.602-0.929-5.088-7.237-1.958-10.933 3.135-3.706 8.83-6.929 15.735-1.084 6.908 5.849 3.244 14.183 1.157 16.646-2.089 2.471-12.605 13.895-24.698 3.659-13.569-11.485-12.058-26.763-4.756-35.763 5.694-7.028 30.927-19.161 49.676-3.288 18.753 15.869 10.772 41.31-0.087 54.138-6.988 8.253-18.677 12.139-26.145 13.871-1.09-1.519-3.425-2.302-4.783-0.394-0.334 0.475-0.458 0.955-0.496 1.426-1.067 0.159-1.719 0.236-1.719 0.236-1.467 0.664 0.422 1.312 0.422 1.312 0.536-0.029 1.06-0.085 1.586-0.13 0.895 1.827 3.567 2.842 5.128 0.65 0.313-0.44 0.401-0.908 0.405-1.375 14.336-2.69 26.056-10.946 32.936-19.077 7.988-9.437 4.012-6.614 13.8-18.176 9.789-11.567 23.49-18.549 33.943-9.698 10.458 8.85 6.691 17.421 2.233 22.688-4.468 5.278-13.252 3.083-17.229-0.284-3.979-3.369-3.371-9.524-1.101-12.206 2.271-2.685 6.387-4.921 10.089-1.791 3.697 3.133 2.631 6.835 2.631 6.835 2.362-4.67-1.865-7.927-1.865-7.927s-6.48-4.539-11.42 1.294c-5.56 6.568-2.332 12.632 0.635 15.139 5.024 4.254 13.313 6.104 19.738 0.195 7.911-7.277 4.596-16.435 4.596-16.435 13.709-0.681 10.253-9.113 10.253-9.113s-2.661 12.154-13.838 1.84c-25.322-23.358-51.122 22.37-51.122 22.37 3.056-4.61 11.621-31.243-7.126-47.117-18.752-15.873-46.757-5.504-54.401 5.812-6.1 9.1-3.6 21.25-9.2 27.91m38.9 13.71c7.872-0.477 16.959 6.422 16.959 6.422-5.403-9.184-9.463-8.331-9.463-8.331 5.703-4.859 5.268-11.105 5.268-11.105-7.592 11.044-13.5 11.444-13.5 11.444l0.7 1.57h0.036zm37.4-29.26c2.553 7.875-0.057 17.894-0.057 17.894 1.785-4.362 13.179-14.252 13.179-14.252-0.885-4.4-3.983-8.614-3.983-8.614-3.5-0.14-9.1 4.97-9.1 4.97m22.6-1.7s1.601-3.573 4.426-5.787c0 0-7.852-0.296-11.939 8.475 0 0 3.1-2.92 7.5-2.69m-2.3-8.15s0.578-4.435 4.009-7.726c0 0-9.957 2.372-11.198 14.349 0 0 1.1-3.97 7.2-6.62m-23.1-2.03c3.364 2.857 3.614 7.123 3.614 7.123 3.059-9.174-2.843-14.36-2.843-14.36 0.5 3.55-0.8 7.24-0.8 7.24m7-4.13c3.389 5.679 2.008 9.563 2.008 9.563 5.939-10.468-0.776-18.177-0.776-18.177 0.9 4.68-1.2 8.62-1.2 8.62m6.3 9.05s1.993-5.513 6.979-11.778l-1.063-8.14-5.326 6.205c1 7.2-0.6 13.71-0.6 13.71m-110.1 23.01c3.601 11.197 9.854 19.375 19.49 27.166 12.441 10.056 16.651 5.836 22.941 11.164s5.979 9.826 5.979 9.826c4.185-7.574-2.333-11.506-2.333-11.506 11.009-6.245 6.123-13.239 6.123-13.239 1.083 4.726-12.598 19.195-31.55 3.312-13.511-11.325-18.105-21.612-19.661-26.957 0.325-0.165 0.632-0.405 0.898-0.781 1.604-2.261-2.294-5.452-4.099-2.908-1.3 1.85 0.5 3.93 2.2 3.93" fill="#593d2c"/>
   <path d="m1004.7 677.89c4.015-13.258 10.105-25.964 18.112-37.417 4.021-5.71 8.521-11.098 13.425-16.1 4.906-5.002 10.254-9.571 15.895-13.734 11.28-8.362 23.866-14.851 36.932-19.882 13.064-4.964 26.554-8.771 40.277-11.447 13.734-2.582 27.726-4.012 41.741-3.828 13.996 0.256 28.063 2.003 41.503 6.141 3.36 1.023 6.677 2.188 9.937 3.495 3.249 1.335 6.466 2.7 9.6 4.461 6.248 3.55 11.449 8.456 16.168 13.568 4.705 5.152 9.037 10.543 13.702 15.621 4.659 5.063 9.715 9.831 15.617 13.482-3.063-1.618-5.969-3.546-8.723-5.674-2.744-2.143-5.328-4.483-7.82-6.909-4.985-4.856-9.551-10.094-14.428-14.938-4.839-4.855-10.027-9.381-15.979-12.473-2.967-1.514-6.167-2.796-9.352-4.002-3.198-1.187-6.448-2.234-9.737-3.142-13.167-3.608-26.852-5.226-40.527-5.222-13.68-0.049-27.372 1.386-40.828 3.991-13.473 2.536-26.734 6.261-39.606 10.993-12.851 4.685-25.138 10.909-36.366 18.706-11.198 7.825-21.271 17.317-29.595 28.237-8.4 10.87-15 23.14-19.9 36.06" fill="#593d2c"/>
   <path d="m1034.5 627.59c3.484-4.223 7.866-7.713 12.676-10.464 4.808-2.759 10.136-4.775 15.76-5.568 2.811-0.382 5.694-0.449 8.549-0.06 2.845 0.394 5.667 1.228 8.202 2.61 2.554 1.341 4.793 3.21 6.602 5.362 1.787 2.177 3.183 4.609 4.098 7.188-3.213-4.409-7.219-8.022-11.941-9.922-4.714-1.909-9.911-2.197-14.999-1.49-5.106 0.705-10.121 2.351-14.96 4.461-4.9 2.15-9.5 4.81-14 7.88" fill="#593d2c"/>
  </g>
 </g>
</svg>
