<svg version="1" xmlns="http://www.w3.org/2000/svg" width="933.333" height="933.333" viewBox="0 0 700.000000 700.000000"><path d="M.2 349.7L0 700h350c232.7 0 350-.3 350-1s-117.2-1-349.5-1H1L.7 348.8.5-.5.2 349.7z"/><path d="M187 71.3C187 72 54.8 465.7 45.7 492c-12.9 37.7-19.4 54.2-30.2 77-11.2 23.6-12.7 27.7-12.9 35.6-.1 5 .4 6.7 2.6 10.1 7.5 11.4 25.2 8.3 32.3-5.7 1.3-2.6 5.8-15.6 9.9-28.9 4.2-13.3 9.9-30.1 12.7-37.4 5.7-14.8 21.5-62 42.9-128.7 7.9-24.5 14.6-44.8 15-45.2.8-1.1 12 18.4 84.5 147.2 34.5 61.3 62.9 111.9 63.2 112.3.3.4 1.1.3 1.8-.3s32.5-66.1 70.6-145.5C376.3 403 407.7 338 408 338c.4 0 19.1 57.3 74.6 228.5l16.2 50 98.8.3c54.3.1 99.1-.1 99.5-.5.7-.7-186.9-543.4-188.2-544.8-.8-.7-20.5 37.7-92.4 180.5-35.7 70.7-65.1 128.9-65.5 129.3-1 1.1 1 4.8-77.8-146.8C193.3 80.6 187 68.7 187 71.3z"/></svg>